<!-- icon666.com - MILLIONS vector ICONS FREE --><svg id="Layer_1" enable-background="new 0 0 128 128" viewBox="0 0 128 128" xmlns="http://www.w3.org/2000/svg"><g><g fill="#e6e7e8"><path d="m119.347 25.963c-4.784-6.498-12.284-10.529-19.583-10.529-.015 0-.029 0-.043 0-7.654.017-13.88 6.245-13.88 13.882 0 3.755 1.508 7.312 4.172 9.917-.805.87-1.43 1.877-1.853 2.966-11.826.322-21.35 10.036-21.35 21.938v49.233c0 1.762 1.434 3.196 3.196 3.196s3.196-1.434 3.196-3.196v-49.233c0-8.337 6.595-15.144 14.84-15.525.166.482.357.956.602 1.407-5.954 1.347-10.269 6.635-10.269 12.893 0 6.994 5.625 13.052 13.085 14.092 1.424.199 2.819.296 4.186.296 12.585 0 22.566-8.318 27.146-22.934 3.364-10.73 2.14-20.818-3.445-28.403z"></path><path d="m43.84 42.199c-.423-1.089-1.049-2.096-1.853-2.966 2.664-2.606 4.172-6.162 4.172-9.917 0-7.638-6.227-13.866-13.88-13.882-.015 0-.028 0-.043 0-7.298 0-14.798 4.032-19.583 10.529-5.585 7.585-6.809 17.673-3.445 28.404 4.58 14.617 14.56 22.935 27.146 22.934 1.365 0 2.763-.098 4.186-.296 7.46-1.04 13.085-7.098 13.085-14.092 0-6.257-4.315-11.545-10.269-12.893.245-.452.436-.925.602-1.407 8.245.381 14.84 7.188 14.84 15.525v49.233c0 1.762 1.434 3.196 3.196 3.196s3.196-1.434 3.196-3.196v-49.234c-.001-11.902-9.524-21.616-21.35-21.938z"></path></g><g><g><path d="m84.769 43.576c-.157-.639-.245-1.305-.245-1.992 0-.836.134-1.638.363-2.399h-.124c-11.553 0-20.953 9.4-20.953 20.953v49.234c0 1.213.983 2.196 2.196 2.196s2.196-.983 2.196-2.196v-49.235c0-9.132 7.429-16.561 16.561-16.561z" fill="#6dc9f7"></path><g><path d="m95.723 12.434c-7.115.016-12.882 5.768-12.882 12.882 0 3.978 1.805 7.532 4.638 9.895-1.806 1.534-2.955 3.818-2.955 6.372 0 1.955.676 3.748 1.8 5.172-6.152.638-10.949 5.836-10.949 12.157 0 6.751 5.537 12.17 12.223 13.102 13.651 1.903 25.106-5.563 30.24-21.945 7.423-23.687-9.233-37.664-22.115-37.635z" fill="#fa759e"></path><path d="m95.723 12.434c-.464.001-.922.029-1.373.078 12.601 1.082 27.602 14.856 20.489 37.557-4.432 14.143-13.581 21.625-24.781 22.185 12.558.721 22.959-6.797 27.781-22.185 7.422-23.687-9.234-37.664-22.116-37.635z" fill="#fff"></path></g></g><g><path d="m39.236 39.184h-.124c.229.761.363 1.563.363 2.399 0 .688-.088 1.354-.245 1.992h.006c9.132 0 16.561 7.429 16.561 16.561v49.234c0 1.213.983 2.196 2.196 2.196s2.196-.983 2.196-2.196v-49.233c0-11.553-9.399-20.953-20.953-20.953z" fill="#0089ef"></path><g><path d="m28.277 12.434c7.115.016 12.882 5.768 12.882 12.882 0 3.978-1.805 7.532-4.638 9.895 1.806 1.534 2.955 3.818 2.955 6.372 0 1.955-.676 3.748-1.8 5.172 6.152.638 10.949 5.836 10.949 12.157 0 6.751-5.537 12.17-12.223 13.102-13.651 1.903-25.106-5.563-30.24-21.945-7.423-23.687 9.232-37.664 22.115-37.635z" fill="#ffd7e5"></path><g fill="#3a2c60"><path d="m115.347 21.963c-4.785-6.498-12.284-10.529-19.583-10.529-.015 0-.029 0-.043 0-7.653.017-13.88 6.245-13.88 13.882 0 3.759 1.523 7.306 4.191 9.912-.796.858-1.433 1.862-1.865 2.971-11.83.318-21.357 10.033-21.357 21.938v49.233c0 1.762 1.434 3.196 3.196 3.196s3.196-1.434 3.196-3.196v-49.233c0-8.333 6.59-15.138 14.835-15.524.169.491.369.967.613 1.417-5.954 1.347-10.275 6.624-10.275 12.882 0 6.994 5.625 13.052 13.085 14.092 1.424.199 2.819.296 4.186.296 12.585 0 22.566-8.317 27.146-22.933 3.363-10.731 2.14-20.819-3.445-28.404zm-48.145 38.174v49.233c0 .659-.537 1.196-1.196 1.196s-1.196-.537-1.196-1.196v-49.233c0-10.62 8.347-19.304 18.821-19.896-.064.44-.107.885-.107 1.342 0 .356.024.706.063 1.052-9.135.61-16.385 8.216-16.385 17.502zm49.682-10.367c-4.832 15.416-15.462 23.159-29.147 21.254-6.477-.903-11.361-6.11-11.361-12.112 0-5.599 4.075-10.272 9.553-11.087 1.715 1.91 4.195 3.12 6.958 3.12.552 0 1-.448 1-1s-.448-1-1-1c-4.06 0-7.363-3.303-7.363-7.362 0-4.06 3.303-7.363 7.363-7.363.552 0 1-.448 1-1s-.448-1-1-1c-1.986 0-3.827.626-5.344 1.685-2.353-2.24-3.702-5.321-3.702-8.59 0-6.538 5.331-11.868 11.884-11.882h.038c6.575 0 13.627 3.811 17.974 9.715 5.197 7.059 6.314 16.514 3.147 26.622z"></path><path d="m39.833 38.199c-.432-1.109-1.069-2.113-1.865-2.971 2.667-2.606 4.191-6.153 4.191-9.912 0-7.638-6.227-13.866-13.88-13.882-.015 0-.028 0-.043 0-7.298 0-14.798 4.032-19.583 10.529-5.584 7.585-6.808 17.673-3.445 28.405 4.58 14.617 14.56 22.934 27.146 22.933 1.365 0 2.762-.098 4.185-.296 7.46-1.04 13.085-7.098 13.085-14.092 0-6.258-4.32-11.536-10.275-12.882.244-.45.444-.927.613-1.417 8.242.383 14.835 7.189 14.835 15.525v13.611c0 .552.448 1 1 1s1-.448 1-1v-13.613c0-9.287-7.251-16.893-16.385-17.502.039-.346.063-.696.063-1.052 0-.457-.044-.903-.108-1.342 10.475.592 18.822 9.276 18.822 19.896v49.233c0 .659-.537 1.196-1.196 1.196-.66 0-1.196-.537-1.196-1.196v-18.995c0-.552-.448-1-1-1s-1 .448-1 1v18.996c0 1.762 1.434 3.196 3.196 3.196s3.196-1.434 3.196-3.196v-49.234c.001-11.905-9.527-21.62-21.356-21.938zm7.792 20.713c0 6.002-4.884 11.208-11.362 12.112-13.69 1.904-24.316-5.838-29.147-21.254-3.167-10.108-2.05-19.563 3.147-26.622 4.347-5.905 11.398-9.715 17.974-9.715h.038c6.553.014 11.884 5.345 11.884 11.882 0 3.269-1.349 6.35-3.702 8.59-1.517-1.059-3.357-1.685-5.344-1.685-.552 0-1 .448-1 1s.448 1 1 1c4.06 0 7.362 3.303 7.362 7.363s-3.303 7.362-7.362 7.362c-.552 0-1 .448-1 1s.448 1 1 1c2.763 0 5.243-1.21 6.958-3.12 5.479.815 9.554 5.488 9.554 11.087z"></path><path d="m55.798 87.375c.552 0 1-.448 1-1v-8.375c0-.552-.448-1-1-1s-1 .448-1 1v8.375c0 .552.448 1 1 1z"></path></g></g></g></g></g></svg>