<?xml version="1.0" encoding="UTF-8" standalone="no"?>
<svg width="100%" height="100%" viewBox="0 0 550 150" version="1.1" xmlns="http://www.w3.org/2000/svg" xmlns:xlink="http://www.w3.org/1999/xlink" xml:space="preserve" style="fill-rule:evenodd;clip-rule:evenodd;stroke-linejoin:round;stroke-miterlimit:2;">
    <g transform="matrix(0.886282,0,0,0.886282,-69.1348,-189.433)">
        <clipPath id="_clip1">
            <path d="M136.606,340.079C135.412,341.031 134.998,341.416 134.63,342.068C134.011,343.163 133.935,344.281 133.912,344.688C133.884,345.161 133.862,345.548 134.002,346.043C134.198,346.738 134.478,346.814 134.81,347.67C134.988,348.131 135.055,348.49 135.168,349.115C135.311,349.892 135.382,350.279 135.349,350.743C135.315,351.205 135.244,352.163 134.541,352.729C134.151,353.045 133.732,353.104 133.194,353.182C132.515,353.278 131.885,353.229 131.217,353.092C129.487,352.732 129.418,352.17 128.074,352.006C127.979,351.995 127.323,352.029 126.009,352.098C124.725,352.163 124.338,352.201 123.853,352.369C123.724,352.414 123.166,352.613 122.417,353.182C121.185,354.118 121.119,354.772 119.632,356.435C119.059,357.075 118.668,357.507 118.016,357.971C117.441,358.381 116.734,358.885 115.681,359.055C114.394,359.266 113.363,358.851 112.987,358.694C112.413,358.455 111.915,358.083 110.921,357.339C109.893,356.569 109.848,356.41 109.305,356.164C108.998,356.024 108.163,355.657 107.15,355.803C107.005,355.823 106.794,355.863 105.354,356.526C103.927,357.183 103.81,357.292 103.378,357.339C103.161,357.362 102.246,357.46 101.491,356.887C100.969,356.49 100.777,355.962 100.594,355.44C100.211,354.349 100.427,353.939 100.234,352.277C100.086,351.009 100.002,350.349 99.516,349.659C99.002,348.926 98.316,348.559 98.168,348.483C97.209,347.985 96.83,348.337 96.013,347.851C95.902,347.784 94.988,347.222 94.757,346.225C94.619,345.634 94.825,345.342 94.935,344.597C94.975,344.337 95.189,342.758 94.576,341.615C94.222,340.957 93.228,340.444 91.253,339.447C89.402,338.511 89.427,338.674 88.918,338.271C87.767,337.362 87.223,336.204 86.583,334.84C86.097,333.803 85.854,333.283 85.775,332.49C85.643,331.16 86.064,330.125 86.314,329.506C86.67,328.631 87.065,327.661 88.02,326.978C88.636,326.537 89.073,326.51 89.547,325.894C89.708,325.683 90.13,325.134 90.086,324.447C90.029,323.562 89.231,322.978 88.649,322.549C87.466,321.683 87.023,322.017 86.224,321.284C85.258,320.397 85.089,319.156 85.057,318.845C84.939,317.734 85.409,316.847 85.865,315.953C86.408,314.887 86.687,314.9 86.943,314.056C87.158,313.348 87.147,312.732 87.123,311.796C87.098,310.831 87.001,310.703 86.943,309.809C86.839,308.232 86.783,307.354 87.212,306.465C87.676,305.506 88.541,304.881 89.098,304.478C89.941,303.867 90.344,303.847 90.625,303.302C90.892,302.783 90.682,302.494 90.625,301.226C90.594,300.527 90.551,299.418 90.894,298.242C91.139,297.4 91.495,296.82 91.793,296.345C92.302,295.53 92.917,294.546 94.038,293.906C94.961,293.377 95.959,293.238 97.001,293.093C98.165,292.929 98.705,293.021 99.247,292.551C99.89,291.991 99.957,291.138 99.965,291.014C100.004,290.409 99.793,289.776 98.886,288.665C97.586,287.07 96.935,287.045 95.565,285.592C94.866,284.853 94.116,284.06 93.588,282.792C92.869,281.063 92.991,279.483 93.049,278.816C93.162,277.548 93.425,277.557 93.947,275.201C94.249,273.843 94.165,273.823 94.576,271.767C95.127,269.017 95.396,268.461 95.834,267.973C96.348,267.397 96.894,267.139 97.809,266.707C98.396,266.429 99.413,266.017 101.312,265.712C102.219,265.569 103.746,265.334 105.802,265.441C108.568,265.589 109.108,266.189 110.652,265.712C111.106,265.574 112.313,265.184 113.076,264.086C113.75,263.119 113.508,262.427 113.795,260.745C113.969,259.73 114.091,259.77 115.681,255.685C116.887,252.584 116.705,252.845 117.208,251.707C117.985,249.951 118.665,248.775 119.632,247.099C120.937,244.841 121.698,243.802 122.596,242.853C123.189,242.225 123.817,241.661 124.752,241.316C125.15,241.168 125.963,240.868 126.907,241.045C127.918,241.235 128.076,241.786 129.869,243.034C131.048,243.852 131.656,244.264 132.564,244.389C133.381,244.501 134.011,244.324 134.72,244.118C135.294,243.95 136.126,243.643 138.671,241.95C140.398,240.801 140.518,240.606 141.186,240.413C142.692,239.974 144.046,240.384 144.419,240.503C146.714,241.23 146.695,242.783 149.089,243.576C149.572,243.735 149.247,243.564 151.874,244.026C154.247,244.445 154.545,244.59 155.286,244.479C155.495,244.447 157.116,244.178 158.249,242.853C158.788,242.223 158.808,241.831 159.596,239.058C160.455,236.037 160.749,235.389 160.943,234.99C161.611,233.631 162.037,232.762 163.009,232.099C163.588,231.705 163.808,231.76 166.512,230.835C167.757,230.408 168.383,230.192 168.576,230.022C169.754,228.99 169.104,227.579 169.924,225.502C170.647,223.677 171.998,222.622 172.708,222.068C174.285,220.841 175.773,220.51 178.096,219.992C179.447,219.689 181.693,219.208 184.653,219.45C186.982,219.638 188.628,220.187 190.49,220.805C192.227,221.381 193.254,221.732 194.441,222.613C195.924,223.708 196.959,225.112 197.045,225.231C197.698,226.129 197.601,226.266 198.033,226.678C198.25,226.884 199.18,227.717 202.074,227.762C204.651,227.803 204.954,227.158 207.014,227.401C207.596,227.469 208.76,227.617 210.067,228.304C211.761,229.193 212.728,230.479 213.121,231.015C213.729,231.843 214.219,232.791 214.467,233.274C215.048,234.399 215.03,234.607 215.456,235.172C216.093,236.014 216.405,235.907 217.341,236.888C217.972,237.55 218.505,238.108 218.778,238.966C218.863,239.23 218.904,239.463 218.868,241.587C218.836,243.506 218.798,243.504 218.868,243.755C219.184,244.897 220.234,245.988 221.562,246.286C222.745,246.553 223.727,246.093 224.078,245.925C225.328,245.321 225.302,244.582 227.041,242.942C228.098,241.947 228.626,241.448 229.465,241.226C229.864,241.121 230.199,241.105 232.878,241.497C235.202,241.838 235.165,241.88 235.573,241.858C236.995,241.782 237.17,241.269 239.075,240.955C240.229,240.765 240.895,240.655 241.679,240.955C242.89,241.417 243.51,242.523 243.745,242.942C244.554,244.387 243.999,244.98 244.733,245.925C245.39,246.77 246.394,247.012 247.875,247.37C249.93,247.867 250.341,247.404 251.288,248.002C252.626,248.849 253.067,250.562 253.175,250.985C253.588,252.596 253.052,253.42 253.713,254.056C254.242,254.567 254.703,254.155 255.868,254.598C257.48,255.216 258.308,256.661 258.472,256.948C259.053,257.963 258.676,258.086 259.281,259.208C260.062,260.659 260.828,260.702 261.078,261.829C261.286,262.77 260.939,263.591 260.808,263.907C260.368,264.951 259.657,265.262 259.281,265.712C257.411,267.946 262.865,274.269 262.694,280.532C262.651,282.09 262.271,283.264 262.155,283.604C261.915,284.308 261.297,286.053 259.73,287.491C258.786,288.355 258.562,288.131 256.767,289.569C255.283,290.754 255.002,291.254 254.881,291.738C254.659,292.609 254.865,293.783 255.599,294.267C255.991,294.526 256.454,294.535 257.665,294.267C260.443,293.653 261.151,292.902 263.142,292.73C263.957,292.661 264.611,292.604 265.388,292.912C266.997,293.547 267.758,295.205 267.992,295.713C268.554,296.932 268.22,297.176 268.801,298.334C269.334,299.398 270.039,300.037 270.866,300.773C272.671,302.379 273.282,302.097 274.188,303.302C274.479,303.688 275.236,304.808 275.267,306.375C275.274,306.738 275.263,308.221 274.279,309.538C273.141,311.059 271.922,310.729 271.046,312.249C270.49,313.211 270.5,314.177 270.506,314.508C270.53,315.545 270.929,316.542 272.752,318.755C275.429,322.005 276.498,322.2 277.243,324.268C277.47,324.899 277.845,325.943 277.691,327.249C277.611,327.934 277.472,327.948 277.063,329.778C276.734,331.247 276.708,331.749 276.704,332.038C276.691,332.75 276.789,332.795 276.793,333.753C276.799,334.813 276.796,335.351 276.524,335.832C276.242,336.332 275.83,336.558 275.177,336.916C274.024,337.55 273.583,337.355 272.572,338C272.073,338.321 271.723,338.544 271.495,338.995C271.145,339.687 271.527,340.041 271.405,341.163C271.38,341.392 271.119,342.102 270.596,343.513C270.097,344.865 270.024,345.038 269.788,345.23C269.226,345.688 268.738,345.443 267.813,345.683C266.977,345.898 266.447,346.369 265.388,347.309C264.907,347.735 263.984,348.61 262.963,350.02C261.667,351.809 261.792,352.286 260.987,352.729C260.295,353.113 259.756,353.007 257.755,352.911C255.785,352.815 257.782,352.99 253.893,352.819C248.865,352.602 248.838,352.457 248.235,352.729C247.051,353.267 246.343,354.201 244.733,354.266C244.178,354.289 243.757,354.199 243.655,354.177C242.021,353.809 241.037,352.441 240.691,352.006C239.463,350.463 238.54,350.944 230.453,347.488C228.377,346.602 227.316,346.146 226.143,345.501C223.29,343.934 223.078,343.275 221.293,342.521C219.437,341.734 217.811,341.725 214.558,341.705C210.763,341.685 210.184,342.26 207.104,341.887C205.096,341.642 203.422,341.344 203.422,341.344C201.961,341.084 201.183,340.89 199.829,340.802C198.44,340.713 197.73,340.672 196.955,340.984C195.546,341.548 194.839,342.762 194.621,343.152C194.095,344.086 194.086,344.76 193.902,346.946C193.547,351.171 193.405,350.743 193.364,352.729C193.334,354.121 193.307,355.462 193.543,357.248C193.845,359.534 194.405,361.226 194.801,362.399C195.731,365.163 197.045,367.909 197.045,367.909C197.373,368.595 198.035,369.938 198.392,371.795C198.566,372.696 198.598,373.357 198.392,374.056C198.392,374.056 198.072,375.146 197.045,376.042C194.974,377.852 188.337,377.292 185.82,377.126C179.371,376.706 174.836,376.41 169.385,377.037C167.069,377.303 164.348,377.765 162.65,376.134C161.691,375.211 161.146,373.708 161.212,372.337C161.27,371.177 161.74,370.64 162.559,369.085C162.559,369.085 164.175,366.023 165.164,362.128C165.708,359.987 165.979,358.918 165.883,357.429C165.7,354.631 164.52,354.069 164.446,351.193C164.388,348.951 165.093,348.772 164.805,347.128C164.354,344.55 162.259,342.906 161.302,342.158C159.696,340.898 158.889,340.892 153.399,339.086C148.368,337.429 147.635,336.97 145.406,336.827C143.734,336.719 141.809,336.618 139.839,337.64C139.353,337.893 138.436,338.621 136.606,340.079Z"/>
        </clipPath>
        <g clip-path="url(#_clip1)">
            <path d="M59.813,329.707L221.149,428.214L221.374,427.842L60.037,329.334L59.813,329.707Z" style="fill:rgb(15,86,165);fill-rule:nonzero;"/>
            <path d="M61.741,326.509L223.078,425.016L223.303,424.644L61.966,326.136L61.741,326.509Z" style="fill:rgb(15,86,165);fill-rule:nonzero;"/>
            <path d="M63.672,323.309L225.007,421.817L225.232,421.445L63.897,322.937L63.672,323.309Z" style="fill:rgb(15,86,165);fill-rule:nonzero;"/>
            <path d="M65.601,320.11L226.936,418.619L227.161,418.247L65.826,319.738L65.601,320.11Z" style="fill:rgb(15,86,165);fill-rule:nonzero;"/>
            <path d="M67.53,316.912L228.865,415.42L229.09,415.048L67.755,316.54L67.53,316.912Z" style="fill:rgb(15,86,165);fill-rule:nonzero;"/>
            <path d="M69.459,313.714L230.795,412.222L231.02,411.849L69.684,313.341L69.459,313.714Z" style="fill:rgb(15,86,165);fill-rule:nonzero;"/>
            <path d="M71.388,310.515L232.724,409.023L232.949,408.65L71.613,310.142L71.388,310.515Z" style="fill:rgb(15,86,165);fill-rule:nonzero;"/>
            <path d="M73.317,307.316L234.653,405.825L234.877,405.452L73.542,306.944L73.317,307.316Z" style="fill:rgb(15,86,165);fill-rule:nonzero;"/>
            <path d="M75.248,304.117L236.582,402.626L236.807,402.253L75.473,303.745L75.248,304.117Z" style="fill:rgb(15,86,165);fill-rule:nonzero;"/>
            <path d="M77.177,300.919L238.511,399.427L238.736,399.055L77.402,300.547L77.177,300.919Z" style="fill:rgb(15,86,165);fill-rule:nonzero;"/>
            <path d="M79.106,297.72L240.44,396.228L240.664,395.856L79.331,297.347L79.106,297.72Z" style="fill:rgb(15,86,165);fill-rule:nonzero;"/>
            <path d="M81.035,294.521L242.371,393.03L242.595,392.657L81.26,294.149L81.035,294.521Z" style="fill:rgb(15,86,165);fill-rule:nonzero;"/>
            <path d="M82.964,291.322L244.3,389.832L244.524,389.458L83.188,290.95L82.964,291.322Z" style="fill:rgb(15,86,165);fill-rule:nonzero;"/>
            <path d="M158.049,332.791L246.229,386.632L246.453,386.259L158.817,332.75C158.533,332.77 158.276,332.783 158.049,332.791Z" style="fill:rgb(15,86,165);fill-rule:nonzero;"/>
            <path d="M154.704,330.239L85.117,287.751L84.893,288.124L154.563,330.663L154.704,330.239Z" style="fill:rgb(15,86,165);fill-rule:nonzero;"/>
            <path d="M155.914,326.602L87.046,284.553L86.822,284.925L155.772,327.025L155.914,326.602Z" style="fill:rgb(15,86,165);fill-rule:nonzero;"/>
            <path d="M164.148,332.139L248.157,383.433L248.382,383.061L164.814,332.036C164.588,332.072 164.367,332.106 164.148,332.139Z" style="fill:rgb(15,86,165);fill-rule:nonzero;"/>
            <path d="M169.675,331.136L250.086,380.235L250.311,379.863L170.291,331.003C170.085,331.048 169.878,331.093 169.675,331.136Z" style="fill:rgb(15,86,165);fill-rule:nonzero;"/>
            <path d="M157.123,322.963L88.977,281.354L88.753,281.727L156.982,323.387L157.123,322.963Z" style="fill:rgb(15,86,165);fill-rule:nonzero;"/>
            <path d="M174.815,329.899L252.016,377.037L252.24,376.665L175.393,329.742C175.2,329.796 175.008,329.847 174.815,329.899Z" style="fill:rgb(15,86,165);fill-rule:nonzero;"/>
            <path d="M158.333,319.325L90.907,278.156L90.682,278.528L158.192,319.749L158.333,319.325Z" style="fill:rgb(15,86,165);fill-rule:nonzero;"/>
            <path d="M179.614,328.451L253.946,373.837L254.171,373.464L180.151,328.27C179.972,328.331 179.792,328.391 179.614,328.451Z" style="fill:rgb(15,86,165);fill-rule:nonzero;"/>
            <path d="M159.542,315.686L92.835,274.957L92.611,275.329L159.402,316.11L159.542,315.686Z" style="fill:rgb(15,86,165);fill-rule:nonzero;"/>
            <path d="M184.066,326.793L255.875,370.639L256.1,370.266L184.562,326.587C184.398,326.656 184.232,326.725 184.066,326.793Z" style="fill:rgb(15,86,165);fill-rule:nonzero;"/>
            <path d="M164.816,314.53L94.764,271.758L94.54,272.131L164.069,314.583C164.313,314.568 164.563,314.55 164.816,314.53Z" style="fill:rgb(15,86,165);fill-rule:nonzero;"/>
            <path d="M96.693,268.559L96.468,268.931L165.676,311.188C165.596,310.976 165.522,310.761 165.455,310.543L96.693,268.559Z" style="fill:rgb(15,86,165);fill-rule:nonzero;"/>
            <path d="M188.164,324.919L257.803,367.44L258.028,367.068L188.618,324.687C188.469,324.765 188.316,324.842 188.164,324.919Z" style="fill:rgb(15,86,165);fill-rule:nonzero;"/>
            <path d="M191.885,322.815L259.733,364.242L259.958,363.87L192.291,322.553C192.156,322.641 192.022,322.729 191.885,322.815Z" style="fill:rgb(15,86,165);fill-rule:nonzero;"/>
            <path d="M98.622,265.36L98.397,265.733L164.988,306.392C164.998,306.233 165.015,306.071 165.032,305.909L98.622,265.36Z" style="fill:rgb(15,86,165);fill-rule:nonzero;"/>
            <path d="M195.202,320.463L261.661,361.042L261.887,360.67L195.562,320.173C195.443,320.27 195.323,320.366 195.202,320.463Z" style="fill:rgb(15,86,165);fill-rule:nonzero;"/>
            <path d="M100.553,262.162L100.329,262.534L165.847,302.539C165.901,302.405 165.969,302.273 166.027,302.139L100.553,262.162Z" style="fill:rgb(15,86,165);fill-rule:nonzero;"/>
            <path d="M198.08,317.844L263.591,357.845L263.816,357.472L198.387,317.521C198.287,317.63 198.183,317.737 198.08,317.844Z" style="fill:rgb(15,86,165);fill-rule:nonzero;"/>
            <path d="M102.482,258.963L102.258,259.336L167.649,299.263C167.731,299.145 167.821,299.028 167.906,298.911L102.482,258.963Z" style="fill:rgb(15,86,165);fill-rule:nonzero;"/>
            <path d="M104.411,255.764L104.187,256.137L170.033,296.342C170.134,296.233 170.228,296.123 170.332,296.015L104.411,255.764Z" style="fill:rgb(15,86,165);fill-rule:nonzero;"/>
            <path d="M200.479,314.932L265.52,354.646L265.745,354.273L200.722,314.571C200.642,314.692 200.562,314.813 200.479,314.932Z" style="fill:rgb(15,86,165);fill-rule:nonzero;"/>
            <path d="M106.34,252.564L106.115,252.937L172.781,293.642C172.893,293.541 173.006,293.44 173.12,293.339L106.34,252.564Z" style="fill:rgb(15,86,165);fill-rule:nonzero;"/>
            <path d="M202.334,311.687L267.451,351.446L267.676,351.074L202.509,311.284C202.451,311.418 202.395,311.553 202.334,311.687Z" style="fill:rgb(15,86,165);fill-rule:nonzero;"/>
            <path d="M203.561,308.06L269.38,348.248L269.605,347.875L203.659,307.61C203.628,307.761 203.595,307.91 203.561,308.06Z" style="fill:rgb(15,86,165);fill-rule:nonzero;"/>
            <path d="M166.57,284.964L108.269,249.366L108.044,249.739L167.572,286.085C167.225,285.721 166.89,285.349 166.57,284.964Z" style="fill:rgb(15,86,165);fill-rule:nonzero;"/>
            <path d="M163.013,278.416L110.198,246.168L109.973,246.541L163.213,279.048C163.143,278.84 163.076,278.629 163.013,278.416Z" style="fill:rgb(15,86,165);fill-rule:nonzero;"/>
            <path d="M204.052,303.692C204.052,303.789 204.047,303.884 204.046,303.98L271.309,345.049L271.533,344.677L204.042,303.468C204.043,303.543 204.052,303.616 204.052,303.692Z" style="fill:rgb(15,86,165);fill-rule:nonzero;"/>
            <path d="M203.43,299.228L273.238,341.851L273.463,341.479L203.239,298.601C203.307,298.809 203.371,299.018 203.43,299.228Z" style="fill:rgb(15,86,165);fill-rule:nonzero;"/>
            <path d="M162.25,273.574L112.127,242.97L111.902,243.342L162.272,274.097C162.262,273.925 162.256,273.75 162.25,273.574Z" style="fill:rgb(15,86,165);fill-rule:nonzero;"/>
            <path d="M199.761,292.611L275.167,338.652L275.391,338.279L198.665,291.432C199.052,291.818 199.416,292.212 199.761,292.611Z" style="fill:rgb(15,86,165);fill-rule:nonzero;"/>
            <path d="M162.498,269.349L114.056,239.771L113.832,240.144L162.43,269.817C162.45,269.66 162.474,269.504 162.498,269.349Z" style="fill:rgb(15,86,165);fill-rule:nonzero;"/>
            <path d="M277.096,335.454L277.32,335.081L194.998,284.816C194.895,284.922 194.785,285.025 194.677,285.13L277.096,335.454Z" style="fill:rgb(15,86,165);fill-rule:nonzero;"/>
            <path d="M163.433,265.543L115.987,236.573L115.762,236.945L163.293,265.967C163.339,265.825 163.385,265.684 163.433,265.543Z" style="fill:rgb(15,86,165);fill-rule:nonzero;"/>
            <path d="M279.025,332.255L279.25,331.883L197.183,281.773C197.118,281.902 197.043,282.028 196.973,282.155L279.025,332.255Z" style="fill:rgb(15,86,165);fill-rule:nonzero;"/>
            <path d="M164.952,262.094L117.916,233.375L117.691,233.747L164.751,262.481C164.818,262.352 164.883,262.222 164.952,262.094Z" style="fill:rgb(15,86,165);fill-rule:nonzero;"/>
            <path d="M166.984,258.958L119.845,230.175L119.62,230.547L166.726,259.31C166.812,259.192 166.896,259.074 166.984,258.958Z" style="fill:rgb(15,86,165);fill-rule:nonzero;"/>
            <path d="M280.954,329.056L281.178,328.684L198.22,278.03C198.208,278.192 198.196,278.353 198.177,278.513L280.954,329.056Z" style="fill:rgb(15,86,165);fill-rule:nonzero;"/>
            <path d="M169.469,256.098L121.773,226.976L121.549,227.348L169.158,256.418C169.261,256.311 169.365,256.204 169.469,256.098Z" style="fill:rgb(15,86,165);fill-rule:nonzero;"/>
            <path d="M282.883,325.857L283.107,325.485L197.417,273.163C197.503,273.381 197.588,273.6 197.662,273.822L282.883,325.857Z" style="fill:rgb(15,86,165);fill-rule:nonzero;"/>
            <path d="M172.364,253.489L123.703,223.777L123.478,224.15L172.006,253.78C172.124,253.682 172.244,253.585 172.364,253.489Z" style="fill:rgb(15,86,165);fill-rule:nonzero;"/>
            <path d="M192.962,266.576L284.814,322.659L285.038,322.286L191.712,265.303C192.135,265.714 192.552,266.139 192.962,266.576Z" style="fill:rgb(15,86,165);fill-rule:nonzero;"/>
            <path d="M175.635,251.11L125.632,220.579L125.407,220.951L175.235,251.375C175.368,251.287 175.501,251.198 175.635,251.11Z" style="fill:rgb(15,86,165);fill-rule:nonzero;"/>
            <path d="M192.266,261.775L286.742,319.46L286.967,319.088L192.872,261.635C192.669,261.679 192.468,261.728 192.266,261.775Z" style="fill:rgb(15,86,165);fill-rule:nonzero;"/>
            <path d="M179.263,248.949L127.561,217.381L127.336,217.753L178.824,249.19C178.97,249.109 179.116,249.028 179.263,248.949Z" style="fill:rgb(15,86,165);fill-rule:nonzero;"/>
            <path d="M197.938,260.861L288.671,316.261L288.896,315.889L198.674,260.801C198.429,260.817 198.183,260.839 197.938,260.861Z" style="fill:rgb(15,86,165);fill-rule:nonzero;"/>
            <path d="M183.237,246.998L129.492,214.182L129.267,214.554L182.757,247.215C182.917,247.142 183.077,247.069 183.237,246.998Z" style="fill:rgb(15,86,165);fill-rule:nonzero;"/>
            <path d="M203.15,259.667L290.6,313.063L290.825,312.69L203.285,259.239L203.15,259.667Z" style="fill:rgb(15,86,165);fill-rule:nonzero;"/>
            <path d="M204.311,255.999L292.53,309.865L292.754,309.492L204.446,255.571L204.311,255.999Z" style="fill:rgb(15,86,165);fill-rule:nonzero;"/>
            <path d="M187.552,245.256L131.42,210.982L131.196,211.355L187.033,245.449C187.206,245.384 187.379,245.319 187.552,245.256Z" style="fill:rgb(15,86,165);fill-rule:nonzero;"/>
            <path d="M205.471,252.331L294.458,306.666L294.683,306.293L205.607,251.904L205.471,252.331Z" style="fill:rgb(15,86,165);fill-rule:nonzero;"/>
            <path d="M192.228,243.735L133.35,207.784L133.125,208.157L191.665,243.901C191.853,243.845 192.041,243.789 192.228,243.735Z" style="fill:rgb(15,86,165);fill-rule:nonzero;"/>
            <path d="M206.633,248.663L296.389,303.466L296.614,303.094L206.768,248.235L206.633,248.663Z" style="fill:rgb(15,86,165);fill-rule:nonzero;"/>
            <path d="M197.321,242.467L135.279,204.586L135.054,204.958L196.703,242.6C196.91,242.554 197.117,242.51 197.321,242.467Z" style="fill:rgb(15,86,165);fill-rule:nonzero;"/>
            <path d="M207.793,244.995L298.318,300.268L298.543,299.896L207.928,244.568L207.793,244.995Z" style="fill:rgb(15,86,165);fill-rule:nonzero;"/>
            <path d="M203.024,241.573L137.207,201.386L136.983,201.759L202.31,241.647C202.555,241.619 202.793,241.595 203.024,241.573Z" style="fill:rgb(15,86,165);fill-rule:nonzero;"/>
            <path d="M138.912,198.561L300.247,297.07L300.472,296.697L139.136,198.188L138.912,198.561Z" style="fill:rgb(15,86,165);fill-rule:nonzero;"/>
            <path d="M140.843,195.362L302.176,293.87L302.401,293.498L141.067,194.989L140.843,195.362Z" style="fill:rgb(15,86,165);fill-rule:nonzero;"/>
            <path d="M142.771,192.163L304.105,290.672L304.33,290.299L142.996,191.79L142.771,192.163Z" style="fill:rgb(15,86,165);fill-rule:nonzero;"/>
            <path d="M144.7,188.964L306.034,287.474L306.259,287.101L144.925,188.591L144.7,188.964Z" style="fill:rgb(15,86,165);fill-rule:nonzero;"/>
            <path d="M146.629,185.766L307.963,284.275L308.188,283.903L146.854,185.394L146.629,185.766Z" style="fill:rgb(15,86,165);fill-rule:nonzero;"/>
            <path d="M148.559,182.567L309.894,281.076L310.119,280.703L148.783,182.195L148.559,182.567Z" style="fill:rgb(15,86,165);fill-rule:nonzero;"/>
            <path d="M150.487,179.368L311.823,277.877L312.047,277.505L150.712,178.996L150.487,179.368Z" style="fill:rgb(15,86,165);fill-rule:nonzero;"/>
            <path d="M152.416,176.17L313.752,274.679L313.977,274.306L152.641,175.797L152.416,176.17Z" style="fill:rgb(15,86,165);fill-rule:nonzero;"/>
            <path d="M154.347,172.97L315.681,271.479L315.905,271.107L154.572,172.598L154.347,172.97Z" style="fill:rgb(15,86,165);fill-rule:nonzero;"/>
            <path d="M156.276,169.772L317.61,268.282L317.835,267.91L156.501,169.4L156.276,169.772Z" style="fill:rgb(15,86,165);fill-rule:nonzero;"/>
            <path d="M158.43,166.201L158.205,166.573L319.539,265.083L319.763,264.71L158.43,166.201Z" style="fill:rgb(15,86,165);fill-rule:nonzero;"/>
        </g>
    </g>
    <g transform="matrix(0.886282,0,0,0.886282,-69.1348,-189.433)">
        <path d="M179.13,294.133C178.59,293.769 178.07,293.401 177.573,293.029C172.65,297.021 168.524,301.115 167.779,305.33C167.169,308.779 168.262,311.392 170.411,313.831C171.118,313.711 171.834,313.579 172.554,313.435C170.077,310.981 169.042,308.751 169.59,305.649C170.253,301.898 174.31,297.998 179.13,294.133Z" style="fill:rgb(15,86,165);fill-rule:nonzero;"/>
    </g>
    <g transform="matrix(0.886282,0,0,0.886282,-69.1348,-189.433)">
        <path d="M170.388,272.099C171.235,270.064 172.876,268.149 174.974,266.423C181.024,260.798 191.917,257.472 200.302,257.296L204.22,244.917C194.749,245.489 165.663,253.005 165.663,272.827C165.663,277.259 167.268,280.605 169.781,283.391C168.53,279.858 168.726,276.088 170.388,272.099Z" style="fill:rgb(15,86,165);fill-rule:nonzero;"/>
    </g>
    <g transform="matrix(0.886282,0,0,0.886282,-69.1348,-189.433)">
        <path d="M187.25,287.884C189.092,286.458 190.885,285.02 192.46,283.602C194.583,281.691 195.643,279.542 195.613,277.214C195.608,276.874 195.578,276.535 195.529,276.198C193.827,280.823 188.514,284.573 188.264,284.747L188.262,284.745C187.315,285.508 186.331,286.273 185.338,287.035C184.578,286.713 183.796,286.398 182.979,286.091C179.818,284.906 177,283.741 174.828,282.336L188.388,282.336C188.994,281.837 189.691,281.21 190.391,280.497L172.399,280.497L172.399,280.498C172.41,280.826 172.887,282.336 172.887,282.336C174.125,285.849 177.155,289.111 182.033,292.177C184.686,293.763 187.031,295.288 188.806,296.972L179.837,296.972C179.091,297.586 178.371,298.2 177.687,298.811L190.449,298.811C191.437,300.161 192.052,301.644 192.189,303.345L173.471,303.345C173.038,303.976 172.695,304.591 172.468,305.184L192.132,305.184C191.863,306.89 190.983,308.395 189.673,309.717L172.875,309.717C173.241,310.293 173.748,310.895 174.421,311.557L187.421,311.557C180.569,316.192 168.176,317.977 162.359,318.088L158.622,329.329C166.744,328.795 200.622,323.193 200.622,303.692C200.622,297.354 196.125,292.049 187.25,287.884Z" style="fill:rgb(15,86,165);fill-rule:nonzero;"/>
    </g>
    <g transform="matrix(0.886282,0,0,0.886282,-69.1348,-189.433)">
        <path d="M172.522,275.966L193.612,276C193.614,276.008 193.617,276.016 193.619,276.023C193.622,276.016 193.625,276.008 193.628,276L193.63,276C193.712,275.812 193.776,275.623 193.844,275.434C193.875,275.347 193.915,275.26 193.943,275.173C194.032,274.893 194.102,274.612 194.148,274.332C194.152,274.312 194.152,274.292 194.156,274.271L194.156,274.27C194.261,273.582 194.233,272.934 194.069,272.318C192.107,268.985 188.659,266 186.033,263.759C185.399,264.015 184.768,264.281 184.147,264.566C184.311,264.706 184.474,264.846 184.647,264.994C185.606,265.812 186.694,266.743 187.776,267.751L178.515,267.751C177.672,268.343 176.895,268.957 176.205,269.591L189.635,269.591C190.999,271.034 192.207,272.581 192.959,274.16L173.072,274.127C172.849,274.747 172.655,275.361 172.522,275.966Z" style="fill:rgb(15,86,165);fill-rule:nonzero;"/>
    </g>
    <g transform="matrix(0.23876,0,0,0.23876,156.15,-55.0822)">
        <path d="M231.222,307.251C224.694,293.337 212.498,285.435 196.522,285.435C177.626,285.435 163.711,299.864 163.711,318.073C163.711,356.209 214.044,352.258 214.044,372.184C214.044,383.178 207.688,387.817 198.411,387.817C185.356,387.817 178.141,376.307 174.534,363.424L156.497,374.761C160.276,393.142 176.08,408.43 197.896,408.43C220.915,408.43 236.375,394.516 236.375,370.982C236.375,335.251 185.012,338 185.012,317.042C185.012,310.686 189.994,306.048 196.522,306.048C203.565,306.048 208.547,309.828 213.185,318.76L231.222,307.251Z" style="fill:rgb(15,86,165);fill-rule:nonzero;"/>
        <path d="M332.058,361.878C332.058,342.981 320.548,319.104 291.689,319.104C261.971,319.104 250.118,343.325 250.118,363.767C250.118,384.209 261.971,408.43 291.689,408.43C312.646,408.43 324.328,398.467 331.027,383.178L313.849,376.823C308.695,385.755 302.683,390.222 292.891,390.222C279.664,390.222 272.965,380.258 272.449,370.638L332.058,370.638L332.058,361.878ZM291.689,337.313C303.027,337.313 308.352,345.215 310.241,353.804L272.965,353.804C274.511,345.558 280.867,337.313 291.689,337.313Z" style="fill:rgb(15,86,165);fill-rule:nonzero;"/>
        <path d="M411.765,375.964C407.298,385.068 401.114,390.222 391.494,390.222C378.095,390.222 371.568,379.056 371.568,363.767C371.568,348.479 378.095,337.313 391.494,337.313C401.114,337.313 407.298,342.466 411.765,351.571L430.832,343.84C424.305,327.521 410.734,319.104 391.494,319.104C363.322,319.104 349.236,339.374 349.236,363.767C349.236,388.16 363.322,408.43 391.494,408.43C410.734,408.43 424.305,400.013 430.832,383.694L411.765,375.964Z" style="fill:rgb(15,86,165);fill-rule:nonzero;"/>
        <path d="M448.011,285.435L448.011,407.056L469.311,407.056L469.311,370.467C469.311,347.104 479.79,337.313 489.582,337.313C498.343,337.313 502.465,342.294 502.465,352.773L502.465,407.056L523.766,407.056L523.766,345.215C523.766,327.521 513.116,319.104 496.797,319.104C484.257,319.104 474.809,325.632 469.311,334.392L469.311,285.435L448.011,285.435Z" style="fill:rgb(15,86,165);fill-rule:nonzero;"/>
        <path d="M625.461,361.878C625.461,342.981 613.952,319.104 585.092,319.104C555.374,319.104 543.521,343.325 543.521,363.767C543.521,384.209 555.374,408.43 585.092,408.43C606.05,408.43 617.731,398.467 624.431,383.178L607.252,376.823C602.099,385.755 596.087,390.222 586.295,390.222C573.068,390.222 566.368,380.258 565.853,370.638L625.461,370.638L625.461,361.878ZM585.092,337.313C596.43,337.313 601.755,345.215 603.645,353.804L566.368,353.804C567.914,345.558 574.27,337.313 585.092,337.313Z" style="fill:rgb(15,86,165);fill-rule:nonzero;"/>
        <path d="M644.873,320.478L644.873,407.056L666.174,407.056L666.174,372.528C666.174,349.681 675.622,337.313 685.928,337.313C693.143,337.313 698.297,341.264 698.297,351.571L698.297,407.056L719.598,407.056L719.598,345.215C719.598,327.865 708.432,319.104 692.972,319.104C681.806,319.104 672.529,325.288 666.174,334.392L666.174,320.478L644.873,320.478Z" style="fill:rgb(15,86,165);fill-rule:nonzero;"/>
        <path d="M739.353,363.767C739.353,388.847 755.5,408.43 783.329,408.43C811.157,408.43 827.305,388.847 827.305,363.767C827.305,338.687 811.157,319.104 783.329,319.104C755.5,319.104 739.353,338.687 739.353,363.767ZM761.684,363.767C761.684,349.509 769.586,337.313 783.329,337.313C797.071,337.313 804.973,349.509 804.973,363.767C804.973,378.025 797.071,390.222 783.329,390.222C769.586,390.222 761.684,378.025 761.684,363.767Z" style="fill:rgb(15,86,165);fill-rule:nonzero;"/>
        <path d="M835.551,320.478L864.925,407.056L884.165,407.056L913.539,320.478L892.067,320.478L874.545,380.774L857.023,320.478L835.551,320.478Z" style="fill:rgb(15,86,165);fill-rule:nonzero;"/>
        <path d="M236.203,587.427L236.203,553.758C236.203,529.365 244.621,517.684 254.928,517.684C261.284,517.684 265.578,520.948 265.578,529.708L265.578,587.427L286.879,587.427L286.879,526.101C286.879,509.438 277.259,499.475 261.112,499.475C250.461,499.475 240.842,506.174 234.657,517.34C230.878,504.8 221.087,499.475 210.436,499.475C199.27,499.475 191.884,505.144 185.528,514.763L185.528,500.849L164.227,500.849L164.227,587.427L185.528,587.427L185.528,555.647C185.528,529.88 193.773,517.684 204.252,517.684C210.608,517.684 214.902,520.948 214.902,529.708L214.902,587.427L236.203,587.427Z" style="fill:rgb(15,86,165);fill-rule:nonzero;"/>
        <path d="M326.217,527.647C328.966,519.573 335.15,517.684 341.162,517.684C349.064,517.684 356.279,520.776 356.279,530.396L356.279,534.175L341.849,534.175C320.033,534.175 304.916,545.341 304.916,562.519C304.916,579.697 316.426,588.801 331.199,588.801C343.567,588.801 351.813,583.82 357.825,576.433L360.058,587.427L377.58,587.427L377.58,535.721C377.58,508.064 361.776,499.475 341.162,499.475C323.469,499.475 310.929,509.266 308.18,523.524L326.217,527.647ZM327.248,562.175C327.248,554.445 332.917,551.009 342.021,551.009L356.279,551.009L356.279,552.727C356.279,563.893 345.972,570.593 336.181,570.593C330.168,570.593 327.248,566.298 327.248,562.175Z" style="fill:rgb(15,86,165);fill-rule:nonzero;"/>
        <path d="M458.661,556.335C454.195,565.439 448.011,570.593 438.391,570.593C424.992,570.593 418.464,559.427 418.464,544.138C418.464,528.85 424.992,517.684 438.391,517.684C448.011,517.684 454.195,522.837 458.661,531.942L477.729,524.211C471.201,507.892 457.63,499.475 438.391,499.475C410.219,499.475 396.132,519.745 396.132,544.138C396.132,568.531 410.219,588.801 438.391,588.801C457.63,588.801 471.201,580.384 477.729,564.065L458.661,556.335Z" style="fill:rgb(15,86,165);fill-rule:nonzero;"/>
        <path d="M494.907,465.806L494.907,587.427L516.208,587.427L516.208,550.838C516.208,527.475 526.687,517.684 536.478,517.684C545.239,517.684 549.362,522.665 549.362,533.144L549.362,587.427L570.663,587.427L570.663,525.586C570.663,507.892 560.012,499.475 543.693,499.475C531.153,499.475 521.705,506.003 516.208,514.763L516.208,465.806L494.907,465.806Z" style="fill:rgb(15,86,165);fill-rule:nonzero;"/>
        <path d="M589.215,475.941C589.215,483.671 595.056,489.683 602.958,489.683C610.86,489.683 616.7,483.671 616.7,475.941C616.7,468.211 610.86,462.198 602.958,462.198C595.056,462.198 589.215,468.211 589.215,475.941ZM592.307,500.849L592.307,587.427L613.608,587.427L613.608,500.849L592.307,500.849Z" style="fill:rgb(15,86,165);fill-rule:nonzero;"/>
        <path d="M635.253,500.849L635.253,587.427L656.554,587.427L656.554,552.899C656.554,530.052 666.002,517.684 676.309,517.684C683.524,517.684 688.677,521.635 688.677,531.942L688.677,587.427L709.978,587.427L709.978,525.586C709.978,508.236 698.812,499.475 683.352,499.475C672.186,499.475 662.91,505.659 656.554,514.763L656.554,500.849L635.253,500.849Z" style="fill:rgb(15,86,165);fill-rule:nonzero;"/>
        <path d="M811.673,542.249C811.673,523.352 800.163,499.475 771.304,499.475C741.586,499.475 729.733,523.696 729.733,544.138C729.733,564.58 741.586,588.801 771.304,588.801C792.261,588.801 803.943,578.838 810.642,563.549L793.464,557.194C788.31,566.126 782.298,570.593 772.507,570.593C759.279,570.593 752.58,560.629 752.065,551.009L811.673,551.009L811.673,542.249ZM771.304,517.684C782.642,517.684 787.967,525.586 789.857,534.175L752.58,534.175C754.126,525.929 760.482,517.684 771.304,517.684Z" style="fill:rgb(15,86,165);fill-rule:nonzero;"/>
        <rect x="873.858" y="465.806" width="21.301" height="121.622" style="fill:rgb(15,86,165);fill-rule:nonzero;"/>
        <path d="M997.541,542.249C997.541,523.352 986.031,499.475 957.172,499.475C927.454,499.475 915.601,523.696 915.601,544.138C915.601,564.58 927.454,588.801 957.172,588.801C978.129,588.801 989.811,578.838 996.51,563.549L979.332,557.194C974.179,566.126 968.166,570.593 958.375,570.593C945.147,570.593 938.448,560.629 937.933,551.009L997.541,551.009L997.541,542.249ZM957.172,517.684C968.51,517.684 973.835,525.586 975.725,534.175L938.448,534.175C939.994,525.929 946.35,517.684 957.172,517.684Z" style="fill:rgb(15,86,165);fill-rule:nonzero;"/>
        <path d="M1033.44,527.647C1036.19,519.573 1042.38,517.684 1048.39,517.684C1056.29,517.684 1063.51,520.776 1063.51,530.396L1063.51,534.175L1049.08,534.175C1027.26,534.175 1012.14,545.341 1012.14,562.519C1012.14,579.697 1023.65,588.801 1038.42,588.801C1050.79,588.801 1059.04,583.82 1065.05,576.433L1067.28,587.427L1084.81,587.427L1084.81,535.721C1084.81,508.064 1069,499.475 1048.39,499.475C1030.69,499.475 1018.15,509.266 1015.41,523.524L1033.44,527.647ZM1034.47,562.175C1034.47,554.445 1040.14,551.009 1049.25,551.009L1063.51,551.009L1063.51,552.727C1063.51,563.893 1053.2,570.593 1043.41,570.593C1037.39,570.593 1034.47,566.298 1034.47,562.175Z" style="fill:rgb(15,86,165);fill-rule:nonzero;"/>
        <path d="M1126.55,587.427L1126.55,556.678C1126.55,528.678 1137.37,518.543 1149.74,518.543C1153.35,518.543 1156.1,519.402 1158.67,520.948L1162.62,501.193C1159.19,500.162 1155.92,499.475 1152.14,499.475C1142.35,499.475 1132.73,504.8 1126.55,514.935L1126.55,500.849L1105.25,500.849L1105.25,587.427L1126.55,587.427Z" style="fill:rgb(15,86,165);fill-rule:nonzero;"/>
        <path d="M1177.74,500.849L1177.74,587.427L1199.04,587.427L1199.04,552.899C1199.04,530.052 1208.49,517.684 1218.8,517.684C1226.01,517.684 1231.16,521.635 1231.16,531.942L1231.16,587.427L1252.46,587.427L1252.46,525.586C1252.46,508.236 1241.3,499.475 1225.84,499.475C1214.67,499.475 1205.4,505.659 1199.04,514.763L1199.04,500.849L1177.74,500.849Z" style="fill:rgb(15,86,165);fill-rule:nonzero;"/>
        <path d="M1269.47,475.941C1269.47,483.671 1275.31,489.683 1283.21,489.683C1291.12,489.683 1296.96,483.671 1296.96,475.941C1296.96,468.211 1291.12,462.198 1283.21,462.198C1275.31,462.198 1269.47,468.211 1269.47,475.941ZM1272.56,500.849L1272.56,587.427L1293.87,587.427L1293.87,500.849L1272.56,500.849Z" style="fill:rgb(15,86,165);fill-rule:nonzero;"/>
        <path d="M1315.51,500.849L1315.51,587.427L1336.81,587.427L1336.81,552.899C1336.81,530.052 1346.26,517.684 1356.57,517.684C1363.78,517.684 1368.93,521.635 1368.93,531.942L1368.93,587.427L1390.23,587.427L1390.23,525.586C1390.23,508.236 1379.07,499.475 1363.61,499.475C1352.44,499.475 1343.17,505.659 1336.81,514.763L1336.81,500.849L1315.51,500.849Z" style="fill:rgb(15,86,165);fill-rule:nonzero;"/>
        <path d="M1416,528.678C1416,535.893 1418.24,541.905 1422.01,546.543C1415.66,550.322 1411.36,556.506 1411.36,564.752C1411.36,570.249 1413.08,574.887 1415.83,578.151C1411.36,582.274 1408.79,588.286 1408.79,595.329C1408.79,614.225 1425.79,623.845 1447.95,623.845C1467.19,623.845 1487.29,615.256 1487.29,593.955C1487.29,577.292 1475.1,568.531 1456.89,568.531L1439.19,568.531C1434.04,568.531 1431.12,566.298 1431.12,562.175C1431.12,559.427 1432.66,557.194 1435.24,555.647C1439.02,556.85 1443.32,557.537 1447.78,557.537C1465.3,557.537 1479.56,546.887 1479.56,528.678C1479.56,523.524 1478.36,518.886 1476.12,514.935L1488.49,508.751L1480.08,494.665L1463.76,503.254C1458.95,500.849 1453.62,499.475 1447.78,499.475C1430.26,499.475 1416,510.641 1416,528.678ZM1452.08,586.396C1460.15,586.396 1465.99,588.114 1465.99,595.329C1465.99,603.059 1458.09,605.98 1447.95,605.98C1436.79,605.98 1428.54,601.857 1428.54,593.611C1428.54,590.347 1429.06,587.771 1430.43,585.709C1433.52,586.225 1436.79,586.396 1440.39,586.396L1452.08,586.396ZM1435.93,528.678C1435.93,521.463 1440.91,516.653 1447.78,516.653C1454.65,516.653 1459.63,521.463 1459.63,528.678C1459.63,535.721 1454.65,540.359 1447.78,540.359C1440.91,540.359 1435.93,535.721 1435.93,528.678Z" style="fill:rgb(15,86,165);fill-rule:nonzero;"/>
        <path d="M220.399,736.706C215.933,745.81 209.749,750.964 200.129,750.964C186.73,750.964 180.203,739.798 180.203,724.509C180.203,709.221 186.73,698.055 200.129,698.055C209.749,698.055 215.933,703.208 220.399,712.313L239.467,704.582C232.94,688.263 219.369,679.846 200.129,679.846C171.957,679.846 157.871,700.116 157.871,724.509C157.871,748.902 171.957,769.172 200.129,769.172C219.369,769.172 232.94,760.755 239.467,744.436L220.399,736.706Z" style="fill:rgb(15,86,165);fill-rule:nonzero;"/>
        <path d="M256.645,646.177L256.645,767.798L277.946,767.798L277.946,731.209C277.946,707.846 288.425,698.055 298.217,698.055C306.978,698.055 311.1,703.036 311.1,713.515L311.1,767.798L332.401,767.798L332.401,705.957C332.401,688.263 321.751,679.846 305.432,679.846C292.891,679.846 283.443,686.374 277.946,695.134L277.946,646.177L256.645,646.177Z" style="fill:rgb(15,86,165);fill-rule:nonzero;"/>
        <path d="M372.255,708.018C375.003,699.944 381.187,698.055 387.2,698.055C395.102,698.055 402.317,701.147 402.317,710.767L402.317,714.546L387.887,714.546C366.071,714.546 350.954,725.712 350.954,742.89C350.954,760.068 362.463,769.172 377.236,769.172C389.605,769.172 397.85,764.191 403.863,756.804L406.096,767.798L423.617,767.798L423.617,716.092C423.617,688.435 407.814,679.846 387.2,679.846C369.506,679.846 356.966,689.637 354.218,703.895L372.255,708.018ZM373.285,742.546C373.285,734.816 378.954,731.38 388.059,731.38L402.317,731.38L402.317,733.098C402.317,744.264 392.01,750.964 382.218,750.964C376.206,750.964 373.285,746.669 373.285,742.546Z" style="fill:rgb(15,86,165);fill-rule:nonzero;"/>
        <path d="M443.544,681.22L443.544,767.798L464.845,767.798L464.845,733.27C464.845,710.423 474.293,698.055 484.6,698.055C491.815,698.055 496.968,702.006 496.968,712.313L496.968,767.798L518.269,767.798L518.269,705.957C518.269,688.607 507.104,679.846 491.643,679.846C480.477,679.846 471.201,686.03 464.845,695.134L464.845,681.22L443.544,681.22Z" style="fill:rgb(15,86,165);fill-rule:nonzero;"/>
        <path d="M544.037,709.049C544.037,716.264 546.27,722.276 550.049,726.914C543.693,730.693 539.399,736.877 539.399,745.123C539.399,750.62 541.116,755.258 543.865,758.522C539.399,762.645 536.822,768.657 536.822,775.7C536.822,794.596 553.828,804.216 575.988,804.216C595.228,804.216 615.326,795.627 615.326,774.326C615.326,757.663 603.13,748.902 584.921,748.902L567.227,748.902C562.074,748.902 559.153,746.669 559.153,742.546C559.153,739.798 560.699,737.565 563.276,736.019C567.055,737.221 571.35,737.908 575.816,737.908C593.338,737.908 607.596,727.258 607.596,709.049C607.596,703.895 606.393,699.257 604.16,695.306L616.529,689.122L608.111,675.036L591.792,683.625C586.982,681.22 581.657,679.846 575.816,679.846C558.295,679.846 544.037,691.012 544.037,709.049ZM580.111,766.767C588.185,766.767 594.025,768.485 594.025,775.7C594.025,783.43 586.123,786.351 575.988,786.351C564.822,786.351 556.577,782.228 556.577,773.982C556.577,770.718 557.092,768.142 558.466,766.08C561.558,766.596 564.822,766.767 568.43,766.767L580.111,766.767ZM563.963,709.049C563.963,701.834 568.945,697.024 575.816,697.024C582.688,697.024 587.669,701.834 587.669,709.049C587.669,716.092 582.688,720.73 575.816,720.73C568.945,720.73 563.963,716.092 563.963,709.049Z" style="fill:rgb(15,86,165);fill-rule:nonzero;"/>
        <path d="M707.917,722.62C707.917,703.724 696.407,679.846 667.548,679.846C637.83,679.846 625.977,704.067 625.977,724.509C625.977,744.951 637.83,769.172 667.548,769.172C688.505,769.172 700.186,759.209 706.886,743.92L689.708,737.565C684.554,746.497 678.542,750.964 668.75,750.964C655.523,750.964 648.824,741 648.308,731.38L707.917,731.38L707.917,722.62ZM667.548,698.055C678.885,698.055 684.211,705.957 686.1,714.546L648.824,714.546C650.37,706.3 656.726,698.055 667.548,698.055Z" style="fill:rgb(15,86,165);fill-rule:nonzero;"/>
        <path d="M770.445,646.177L770.445,767.798L791.746,767.798L791.746,731.209C791.746,707.846 802.225,698.055 812.016,698.055C820.777,698.055 824.9,703.036 824.9,713.515L824.9,767.798L846.201,767.798L846.201,705.957C846.201,688.263 835.551,679.846 819.231,679.846C806.691,679.846 797.243,686.374 791.746,695.134L791.746,646.177L770.445,646.177Z" style="fill:rgb(15,86,165);fill-rule:nonzero;"/>
        <path d="M947.896,722.62C947.896,703.724 936.386,679.846 907.527,679.846C877.809,679.846 865.956,704.067 865.956,724.509C865.956,744.951 877.809,769.172 907.527,769.172C928.485,769.172 940.166,759.209 946.865,743.92L929.687,737.565C924.534,746.497 918.521,750.964 908.73,750.964C895.502,750.964 888.803,741 888.288,731.38L947.896,731.38L947.896,722.62ZM907.527,698.055C918.865,698.055 924.19,705.957 926.08,714.546L888.803,714.546C890.349,706.3 896.705,698.055 907.527,698.055Z" style="fill:rgb(15,86,165);fill-rule:nonzero;"/>
        <path d="M983.798,708.018C986.547,699.944 992.731,698.055 998.743,698.055C1006.64,698.055 1013.86,701.147 1013.86,710.767L1013.86,714.546L999.43,714.546C977.614,714.546 962.497,725.712 962.497,742.89C962.497,760.068 974.007,769.172 988.78,769.172C1001.15,769.172 1009.39,764.191 1015.41,756.804L1017.64,767.798L1035.16,767.798L1035.16,716.092C1035.16,688.435 1019.36,679.846 998.743,679.846C981.05,679.846 968.51,689.637 965.761,703.895L983.798,708.018ZM984.829,742.546C984.829,734.816 990.498,731.38 999.602,731.38L1013.86,731.38L1013.86,733.098C1013.86,744.264 1003.55,750.964 993.762,750.964C987.749,750.964 984.829,746.669 984.829,742.546Z" style="fill:rgb(15,86,165);fill-rule:nonzero;"/>
        <rect x="1056.29" y="646.177" width="21.301" height="121.622" style="fill:rgb(15,86,165);fill-rule:nonzero;"/>
        <path d="M1148.88,748.902C1145.96,750.448 1143.56,750.964 1140.63,750.964C1133.42,750.964 1129.3,747.528 1129.3,736.877L1129.3,699.429L1152.14,699.429L1152.14,681.22L1129.3,681.22L1129.3,646.177L1108,659.576L1108,681.22L1094.6,681.22L1094.6,699.429L1108,699.429L1108,737.221C1108,758.694 1120.19,769.172 1139.78,769.172C1144.41,769.172 1149.05,768.313 1153.86,766.08L1148.88,748.902Z" style="fill:rgb(15,86,165);fill-rule:nonzero;"/>
        <path d="M1171.56,646.177L1171.56,767.798L1192.86,767.798L1192.86,731.209C1192.86,707.846 1203.34,698.055 1213.13,698.055C1221.89,698.055 1226.01,703.036 1226.01,713.515L1226.01,767.798L1247.31,767.798L1247.31,705.957C1247.31,688.263 1236.66,679.846 1220.34,679.846C1207.8,679.846 1198.35,686.374 1192.86,695.134L1192.86,646.177L1171.56,646.177Z" style="fill:rgb(15,86,165);fill-rule:nonzero;"/>
        <path d="M1330.45,736.706C1325.99,745.81 1319.8,750.964 1310.18,750.964C1296.79,750.964 1290.26,739.798 1290.26,724.509C1290.26,709.221 1296.79,698.055 1310.18,698.055C1319.8,698.055 1325.99,703.208 1330.45,712.313L1349.52,704.582C1342.99,688.263 1329.42,679.846 1310.18,679.846C1282.01,679.846 1267.93,700.116 1267.93,724.509C1267.93,748.902 1282.01,769.172 1310.18,769.172C1329.42,769.172 1342.99,760.755 1349.52,744.436L1330.45,736.706Z" style="fill:rgb(15,86,165);fill-rule:nonzero;"/>
        <path d="M1383.88,708.018C1386.63,699.944 1392.81,698.055 1398.82,698.055C1406.73,698.055 1413.94,701.147 1413.94,710.767L1413.94,714.546L1399.51,714.546C1377.69,714.546 1362.58,725.712 1362.58,742.89C1362.58,760.068 1374.09,769.172 1388.86,769.172C1401.23,769.172 1409.47,764.191 1415.49,756.804L1417.72,767.798L1435.24,767.798L1435.24,716.092C1435.24,688.435 1419.44,679.846 1398.82,679.846C1381.13,679.846 1368.59,689.637 1365.84,703.895L1383.88,708.018ZM1384.91,742.546C1384.91,734.816 1390.58,731.38 1399.68,731.38L1413.94,731.38L1413.94,733.098C1413.94,744.264 1403.63,750.964 1393.84,750.964C1387.83,750.964 1384.91,746.669 1384.91,742.546Z" style="fill:rgb(15,86,165);fill-rule:nonzero;"/>
        <path d="M1476.98,767.798L1476.98,737.049C1476.98,709.049 1487.81,698.914 1500.17,698.914C1503.78,698.914 1506.53,699.773 1509.11,701.319L1513.06,681.564C1509.62,680.533 1506.36,679.846 1502.58,679.846C1492.79,679.846 1483.17,685.171 1476.98,695.306L1476.98,681.22L1455.68,681.22L1455.68,767.798L1476.98,767.798Z" style="fill:rgb(15,86,165);fill-rule:nonzero;"/>
        <path d="M1603.76,722.62C1603.76,703.724 1592.25,679.846 1563.39,679.846C1533.67,679.846 1521.82,704.067 1521.82,724.509C1521.82,744.951 1533.67,769.172 1563.39,769.172C1584.35,769.172 1596.03,759.209 1602.73,743.92L1585.55,737.565C1580.4,746.497 1574.38,750.964 1564.59,750.964C1551.37,750.964 1544.67,741 1544.15,731.38L1603.76,731.38L1603.76,722.62ZM1563.39,698.055C1574.73,698.055 1580.05,705.957 1581.94,714.546L1544.67,714.546C1546.21,706.3 1552.57,698.055 1563.39,698.055Z" style="fill:rgb(15,86,165);fill-rule:nonzero;"/>
    </g>
</svg>
