<?xml version="1.0" encoding="UTF-8" standalone="no"?>
<svg width="100%" height="100%" viewBox="0 0 650 120" version="1.1" xmlns="http://www.w3.org/2000/svg" xmlns:xlink="http://www.w3.org/1999/xlink" xml:space="preserve" style="fill-rule:evenodd;clip-rule:evenodd;stroke-linejoin:round;stroke-miterlimit:2;">
    <g transform="matrix(0.664655,0,0,0.664655,-56.5213,-138.307)">
        <clipPath id="_clip1">
            <path d="M136.606,340.079C135.412,341.031 134.998,341.416 134.63,342.068C134.011,343.163 133.935,344.281 133.912,344.688C133.884,345.161 133.862,345.548 134.002,346.043C134.198,346.738 134.478,346.814 134.81,347.67C134.988,348.131 135.055,348.49 135.168,349.115C135.311,349.892 135.382,350.279 135.349,350.743C135.315,351.205 135.244,352.163 134.541,352.729C134.151,353.045 133.732,353.104 133.194,353.182C132.515,353.278 131.885,353.229 131.217,353.092C129.487,352.732 129.418,352.17 128.074,352.006C127.979,351.995 127.323,352.029 126.009,352.098C124.725,352.163 124.338,352.201 123.853,352.369C123.724,352.414 123.166,352.613 122.417,353.182C121.185,354.118 121.119,354.772 119.632,356.435C119.059,357.075 118.668,357.507 118.016,357.971C117.441,358.381 116.734,358.885 115.681,359.055C114.394,359.266 113.363,358.851 112.987,358.694C112.413,358.455 111.915,358.083 110.921,357.339C109.893,356.569 109.848,356.41 109.305,356.164C108.998,356.024 108.163,355.657 107.15,355.803C107.005,355.823 106.794,355.863 105.354,356.526C103.927,357.183 103.81,357.292 103.378,357.339C103.161,357.362 102.246,357.46 101.491,356.887C100.969,356.49 100.777,355.962 100.594,355.44C100.211,354.349 100.427,353.939 100.234,352.277C100.086,351.009 100.002,350.349 99.516,349.659C99.002,348.926 98.316,348.559 98.168,348.483C97.209,347.985 96.83,348.337 96.013,347.851C95.902,347.784 94.988,347.222 94.757,346.225C94.619,345.634 94.825,345.342 94.935,344.597C94.975,344.337 95.189,342.758 94.576,341.615C94.222,340.957 93.228,340.444 91.253,339.447C89.402,338.511 89.427,338.674 88.918,338.271C87.767,337.362 87.223,336.204 86.583,334.84C86.097,333.803 85.854,333.283 85.775,332.49C85.643,331.16 86.064,330.125 86.314,329.506C86.67,328.631 87.065,327.661 88.02,326.978C88.636,326.537 89.073,326.51 89.547,325.894C89.708,325.683 90.13,325.134 90.086,324.447C90.029,323.562 89.231,322.978 88.649,322.549C87.466,321.683 87.023,322.017 86.224,321.284C85.258,320.397 85.089,319.156 85.057,318.845C84.939,317.734 85.409,316.847 85.865,315.953C86.408,314.887 86.687,314.9 86.943,314.056C87.158,313.348 87.147,312.732 87.123,311.796C87.098,310.831 87.001,310.703 86.943,309.809C86.839,308.232 86.783,307.354 87.212,306.465C87.676,305.506 88.541,304.881 89.098,304.478C89.941,303.867 90.344,303.847 90.625,303.302C90.892,302.783 90.682,302.494 90.625,301.226C90.594,300.527 90.551,299.418 90.894,298.242C91.139,297.4 91.495,296.82 91.793,296.345C92.302,295.53 92.917,294.546 94.038,293.906C94.961,293.377 95.959,293.238 97.001,293.093C98.165,292.929 98.705,293.021 99.247,292.551C99.89,291.991 99.957,291.138 99.965,291.014C100.004,290.409 99.793,289.776 98.886,288.665C97.586,287.07 96.935,287.045 95.565,285.592C94.866,284.853 94.116,284.06 93.588,282.792C92.869,281.063 92.991,279.483 93.049,278.816C93.162,277.548 93.425,277.557 93.947,275.201C94.249,273.843 94.165,273.823 94.576,271.767C95.127,269.017 95.396,268.461 95.834,267.973C96.348,267.397 96.894,267.139 97.809,266.707C98.396,266.429 99.413,266.017 101.312,265.712C102.219,265.569 103.746,265.334 105.802,265.441C108.568,265.589 109.108,266.189 110.652,265.712C111.106,265.574 112.313,265.184 113.076,264.086C113.75,263.119 113.508,262.427 113.795,260.745C113.969,259.73 114.091,259.77 115.681,255.685C116.887,252.584 116.705,252.845 117.208,251.707C117.985,249.951 118.665,248.775 119.632,247.099C120.937,244.841 121.698,243.802 122.596,242.853C123.189,242.225 123.817,241.661 124.752,241.316C125.15,241.168 125.963,240.868 126.907,241.045C127.918,241.235 128.076,241.786 129.869,243.034C131.048,243.852 131.656,244.264 132.564,244.389C133.381,244.501 134.011,244.324 134.72,244.118C135.294,243.95 136.126,243.643 138.671,241.95C140.398,240.801 140.518,240.606 141.186,240.413C142.692,239.974 144.046,240.384 144.419,240.503C146.714,241.23 146.695,242.783 149.089,243.576C149.572,243.735 149.247,243.564 151.874,244.026C154.247,244.445 154.545,244.59 155.286,244.479C155.495,244.447 157.116,244.178 158.249,242.853C158.788,242.223 158.808,241.831 159.596,239.058C160.455,236.037 160.749,235.389 160.943,234.99C161.611,233.631 162.037,232.762 163.009,232.099C163.588,231.705 163.808,231.76 166.512,230.835C167.757,230.408 168.383,230.192 168.576,230.022C169.754,228.99 169.104,227.579 169.924,225.502C170.647,223.677 171.998,222.622 172.708,222.068C174.285,220.841 175.773,220.51 178.096,219.992C179.447,219.689 181.693,219.208 184.653,219.45C186.982,219.638 188.628,220.187 190.49,220.805C192.227,221.381 193.254,221.732 194.441,222.613C195.924,223.708 196.959,225.112 197.045,225.231C197.698,226.129 197.601,226.266 198.033,226.678C198.25,226.884 199.18,227.717 202.074,227.762C204.651,227.803 204.954,227.158 207.014,227.401C207.596,227.469 208.76,227.617 210.067,228.304C211.761,229.193 212.728,230.479 213.121,231.015C213.729,231.843 214.219,232.791 214.467,233.274C215.048,234.399 215.03,234.607 215.456,235.172C216.093,236.014 216.405,235.907 217.341,236.888C217.972,237.55 218.505,238.108 218.778,238.966C218.863,239.23 218.904,239.463 218.868,241.587C218.836,243.506 218.798,243.504 218.868,243.755C219.184,244.897 220.234,245.988 221.562,246.286C222.745,246.553 223.727,246.093 224.078,245.925C225.328,245.321 225.302,244.582 227.041,242.942C228.098,241.947 228.626,241.448 229.465,241.226C229.864,241.121 230.199,241.105 232.878,241.497C235.202,241.838 235.165,241.88 235.573,241.858C236.995,241.782 237.17,241.269 239.075,240.955C240.229,240.765 240.895,240.655 241.679,240.955C242.89,241.417 243.51,242.523 243.745,242.942C244.554,244.387 243.999,244.98 244.733,245.925C245.39,246.77 246.394,247.012 247.875,247.37C249.93,247.867 250.341,247.404 251.288,248.002C252.626,248.849 253.067,250.562 253.175,250.985C253.588,252.596 253.052,253.42 253.713,254.056C254.242,254.567 254.703,254.155 255.868,254.598C257.48,255.216 258.308,256.661 258.472,256.948C259.053,257.963 258.676,258.086 259.281,259.208C260.062,260.659 260.828,260.702 261.078,261.829C261.286,262.77 260.939,263.591 260.808,263.907C260.368,264.951 259.657,265.262 259.281,265.712C257.411,267.946 262.865,274.269 262.694,280.532C262.651,282.09 262.271,283.264 262.155,283.604C261.915,284.308 261.297,286.053 259.73,287.491C258.786,288.355 258.562,288.131 256.767,289.569C255.283,290.754 255.002,291.254 254.881,291.738C254.659,292.609 254.865,293.783 255.599,294.267C255.991,294.526 256.454,294.535 257.665,294.267C260.443,293.653 261.151,292.902 263.142,292.73C263.957,292.661 264.611,292.604 265.388,292.912C266.997,293.547 267.758,295.205 267.992,295.713C268.554,296.932 268.22,297.176 268.801,298.334C269.334,299.398 270.039,300.037 270.866,300.773C272.671,302.379 273.282,302.097 274.188,303.302C274.479,303.688 275.236,304.808 275.267,306.375C275.274,306.738 275.263,308.221 274.279,309.538C273.141,311.059 271.922,310.729 271.046,312.249C270.49,313.211 270.5,314.177 270.506,314.508C270.53,315.545 270.929,316.542 272.752,318.755C275.429,322.005 276.498,322.2 277.243,324.268C277.47,324.899 277.845,325.943 277.691,327.249C277.611,327.934 277.472,327.948 277.063,329.778C276.734,331.247 276.708,331.749 276.704,332.038C276.691,332.75 276.789,332.795 276.793,333.753C276.799,334.813 276.796,335.351 276.524,335.832C276.242,336.332 275.83,336.558 275.177,336.916C274.024,337.55 273.583,337.355 272.572,338C272.073,338.321 271.723,338.544 271.495,338.995C271.145,339.687 271.527,340.041 271.405,341.163C271.38,341.392 271.119,342.102 270.596,343.513C270.097,344.865 270.024,345.038 269.788,345.23C269.226,345.688 268.738,345.443 267.813,345.683C266.977,345.898 266.447,346.369 265.388,347.309C264.907,347.735 263.984,348.61 262.963,350.02C261.667,351.809 261.792,352.286 260.987,352.729C260.295,353.113 259.756,353.007 257.755,352.911C255.785,352.815 257.782,352.99 253.893,352.819C248.865,352.602 248.838,352.457 248.235,352.729C247.051,353.267 246.343,354.201 244.733,354.266C244.178,354.289 243.757,354.199 243.655,354.177C242.021,353.809 241.037,352.441 240.691,352.006C239.463,350.463 238.54,350.944 230.453,347.488C228.377,346.602 227.316,346.146 226.143,345.501C223.29,343.934 223.078,343.275 221.293,342.521C219.437,341.734 217.811,341.725 214.558,341.705C210.763,341.685 210.184,342.26 207.104,341.887C205.096,341.642 203.422,341.344 203.422,341.344C201.961,341.084 201.183,340.89 199.829,340.802C198.44,340.713 197.73,340.672 196.955,340.984C195.546,341.548 194.839,342.762 194.621,343.152C194.095,344.086 194.086,344.76 193.902,346.946C193.547,351.171 193.405,350.743 193.364,352.729C193.334,354.121 193.307,355.462 193.543,357.248C193.845,359.534 194.405,361.226 194.801,362.399C195.731,365.163 197.045,367.909 197.045,367.909C197.373,368.595 198.035,369.938 198.392,371.795C198.566,372.696 198.598,373.357 198.392,374.056C198.392,374.056 198.072,375.146 197.045,376.042C194.974,377.852 188.337,377.292 185.82,377.126C179.371,376.706 174.836,376.41 169.385,377.037C167.069,377.303 164.348,377.765 162.65,376.134C161.691,375.211 161.146,373.708 161.212,372.337C161.27,371.177 161.74,370.64 162.559,369.085C162.559,369.085 164.175,366.023 165.164,362.128C165.708,359.987 165.979,358.918 165.883,357.429C165.7,354.631 164.52,354.069 164.446,351.193C164.388,348.951 165.093,348.772 164.805,347.128C164.354,344.55 162.259,342.906 161.302,342.158C159.696,340.898 158.889,340.892 153.399,339.086C148.368,337.429 147.635,336.97 145.406,336.827C143.734,336.719 141.809,336.618 139.839,337.64C139.353,337.893 138.436,338.621 136.606,340.079Z"/>
        </clipPath>
        <g clip-path="url(#_clip1)">
            <path d="M59.813,329.707L221.149,428.214L221.374,427.842L60.037,329.334L59.813,329.707Z" style="fill:rgb(15,86,165);fill-rule:nonzero;"/>
            <path d="M61.741,326.509L223.078,425.016L223.303,424.644L61.966,326.136L61.741,326.509Z" style="fill:rgb(15,86,165);fill-rule:nonzero;"/>
            <path d="M63.672,323.309L225.007,421.817L225.232,421.445L63.897,322.937L63.672,323.309Z" style="fill:rgb(15,86,165);fill-rule:nonzero;"/>
            <path d="M65.601,320.11L226.936,418.619L227.161,418.247L65.826,319.738L65.601,320.11Z" style="fill:rgb(15,86,165);fill-rule:nonzero;"/>
            <path d="M67.53,316.912L228.865,415.42L229.09,415.048L67.755,316.54L67.53,316.912Z" style="fill:rgb(15,86,165);fill-rule:nonzero;"/>
            <path d="M69.459,313.714L230.795,412.222L231.02,411.849L69.684,313.341L69.459,313.714Z" style="fill:rgb(15,86,165);fill-rule:nonzero;"/>
            <path d="M71.388,310.515L232.724,409.023L232.949,408.65L71.613,310.142L71.388,310.515Z" style="fill:rgb(15,86,165);fill-rule:nonzero;"/>
            <path d="M73.317,307.316L234.653,405.825L234.877,405.452L73.542,306.944L73.317,307.316Z" style="fill:rgb(15,86,165);fill-rule:nonzero;"/>
            <path d="M75.248,304.117L236.582,402.626L236.807,402.253L75.473,303.745L75.248,304.117Z" style="fill:rgb(15,86,165);fill-rule:nonzero;"/>
            <path d="M77.177,300.919L238.511,399.427L238.736,399.055L77.402,300.547L77.177,300.919Z" style="fill:rgb(15,86,165);fill-rule:nonzero;"/>
            <path d="M79.106,297.72L240.44,396.228L240.664,395.856L79.331,297.347L79.106,297.72Z" style="fill:rgb(15,86,165);fill-rule:nonzero;"/>
            <path d="M81.035,294.521L242.371,393.03L242.595,392.657L81.26,294.149L81.035,294.521Z" style="fill:rgb(15,86,165);fill-rule:nonzero;"/>
            <path d="M82.964,291.322L244.3,389.832L244.524,389.458L83.188,290.95L82.964,291.322Z" style="fill:rgb(15,86,165);fill-rule:nonzero;"/>
            <path d="M158.049,332.791L246.229,386.632L246.453,386.259L158.817,332.75C158.533,332.77 158.276,332.783 158.049,332.791Z" style="fill:rgb(15,86,165);fill-rule:nonzero;"/>
            <path d="M154.704,330.239L85.117,287.751L84.893,288.124L154.563,330.663L154.704,330.239Z" style="fill:rgb(15,86,165);fill-rule:nonzero;"/>
            <path d="M155.914,326.602L87.046,284.553L86.822,284.925L155.772,327.025L155.914,326.602Z" style="fill:rgb(15,86,165);fill-rule:nonzero;"/>
            <path d="M164.148,332.139L248.157,383.433L248.382,383.061L164.814,332.036C164.588,332.072 164.367,332.106 164.148,332.139Z" style="fill:rgb(15,86,165);fill-rule:nonzero;"/>
            <path d="M169.675,331.136L250.086,380.235L250.311,379.863L170.291,331.003C170.085,331.048 169.878,331.093 169.675,331.136Z" style="fill:rgb(15,86,165);fill-rule:nonzero;"/>
            <path d="M157.123,322.963L88.977,281.354L88.753,281.727L156.982,323.387L157.123,322.963Z" style="fill:rgb(15,86,165);fill-rule:nonzero;"/>
            <path d="M174.815,329.899L252.016,377.037L252.24,376.665L175.393,329.742C175.2,329.796 175.008,329.847 174.815,329.899Z" style="fill:rgb(15,86,165);fill-rule:nonzero;"/>
            <path d="M158.333,319.325L90.907,278.156L90.682,278.528L158.192,319.749L158.333,319.325Z" style="fill:rgb(15,86,165);fill-rule:nonzero;"/>
            <path d="M179.614,328.451L253.946,373.837L254.171,373.464L180.151,328.27C179.972,328.331 179.792,328.391 179.614,328.451Z" style="fill:rgb(15,86,165);fill-rule:nonzero;"/>
            <path d="M159.542,315.686L92.835,274.957L92.611,275.329L159.402,316.11L159.542,315.686Z" style="fill:rgb(15,86,165);fill-rule:nonzero;"/>
            <path d="M184.066,326.793L255.875,370.639L256.1,370.266L184.562,326.587C184.398,326.656 184.232,326.725 184.066,326.793Z" style="fill:rgb(15,86,165);fill-rule:nonzero;"/>
            <path d="M164.816,314.53L94.764,271.758L94.54,272.131L164.069,314.583C164.313,314.568 164.563,314.55 164.816,314.53Z" style="fill:rgb(15,86,165);fill-rule:nonzero;"/>
            <path d="M96.693,268.559L96.468,268.931L165.676,311.188C165.596,310.976 165.522,310.761 165.455,310.543L96.693,268.559Z" style="fill:rgb(15,86,165);fill-rule:nonzero;"/>
            <path d="M188.164,324.919L257.803,367.44L258.028,367.068L188.618,324.687C188.469,324.765 188.316,324.842 188.164,324.919Z" style="fill:rgb(15,86,165);fill-rule:nonzero;"/>
            <path d="M191.885,322.815L259.733,364.242L259.958,363.87L192.291,322.553C192.156,322.641 192.022,322.729 191.885,322.815Z" style="fill:rgb(15,86,165);fill-rule:nonzero;"/>
            <path d="M98.622,265.36L98.397,265.733L164.988,306.392C164.998,306.233 165.015,306.071 165.032,305.909L98.622,265.36Z" style="fill:rgb(15,86,165);fill-rule:nonzero;"/>
            <path d="M195.202,320.463L261.661,361.042L261.887,360.67L195.562,320.173C195.443,320.27 195.323,320.366 195.202,320.463Z" style="fill:rgb(15,86,165);fill-rule:nonzero;"/>
            <path d="M100.553,262.162L100.329,262.534L165.847,302.539C165.901,302.405 165.969,302.273 166.027,302.139L100.553,262.162Z" style="fill:rgb(15,86,165);fill-rule:nonzero;"/>
            <path d="M198.08,317.844L263.591,357.845L263.816,357.472L198.387,317.521C198.287,317.63 198.183,317.737 198.08,317.844Z" style="fill:rgb(15,86,165);fill-rule:nonzero;"/>
            <path d="M102.482,258.963L102.258,259.336L167.649,299.263C167.731,299.145 167.821,299.028 167.906,298.911L102.482,258.963Z" style="fill:rgb(15,86,165);fill-rule:nonzero;"/>
            <path d="M104.411,255.764L104.187,256.137L170.033,296.342C170.134,296.233 170.228,296.123 170.332,296.015L104.411,255.764Z" style="fill:rgb(15,86,165);fill-rule:nonzero;"/>
            <path d="M200.479,314.932L265.52,354.646L265.745,354.273L200.722,314.571C200.642,314.692 200.562,314.813 200.479,314.932Z" style="fill:rgb(15,86,165);fill-rule:nonzero;"/>
            <path d="M106.34,252.564L106.115,252.937L172.781,293.642C172.893,293.541 173.006,293.44 173.12,293.339L106.34,252.564Z" style="fill:rgb(15,86,165);fill-rule:nonzero;"/>
            <path d="M202.334,311.687L267.451,351.446L267.676,351.074L202.509,311.284C202.451,311.418 202.395,311.553 202.334,311.687Z" style="fill:rgb(15,86,165);fill-rule:nonzero;"/>
            <path d="M203.561,308.06L269.38,348.248L269.605,347.875L203.659,307.61C203.628,307.761 203.595,307.91 203.561,308.06Z" style="fill:rgb(15,86,165);fill-rule:nonzero;"/>
            <path d="M166.57,284.964L108.269,249.366L108.044,249.739L167.572,286.085C167.225,285.721 166.89,285.349 166.57,284.964Z" style="fill:rgb(15,86,165);fill-rule:nonzero;"/>
            <path d="M163.013,278.416L110.198,246.168L109.973,246.541L163.213,279.048C163.143,278.84 163.076,278.629 163.013,278.416Z" style="fill:rgb(15,86,165);fill-rule:nonzero;"/>
            <path d="M204.052,303.692C204.052,303.789 204.047,303.884 204.046,303.98L271.309,345.049L271.533,344.677L204.042,303.468C204.043,303.543 204.052,303.616 204.052,303.692Z" style="fill:rgb(15,86,165);fill-rule:nonzero;"/>
            <path d="M203.43,299.228L273.238,341.851L273.463,341.479L203.239,298.601C203.307,298.809 203.371,299.018 203.43,299.228Z" style="fill:rgb(15,86,165);fill-rule:nonzero;"/>
            <path d="M162.25,273.574L112.127,242.97L111.902,243.342L162.272,274.097C162.262,273.925 162.256,273.75 162.25,273.574Z" style="fill:rgb(15,86,165);fill-rule:nonzero;"/>
            <path d="M199.761,292.611L275.167,338.652L275.391,338.279L198.665,291.432C199.052,291.818 199.416,292.212 199.761,292.611Z" style="fill:rgb(15,86,165);fill-rule:nonzero;"/>
            <path d="M162.498,269.349L114.056,239.771L113.832,240.144L162.43,269.817C162.45,269.66 162.474,269.504 162.498,269.349Z" style="fill:rgb(15,86,165);fill-rule:nonzero;"/>
            <path d="M277.096,335.454L277.32,335.081L194.998,284.816C194.895,284.922 194.785,285.025 194.677,285.13L277.096,335.454Z" style="fill:rgb(15,86,165);fill-rule:nonzero;"/>
            <path d="M163.433,265.543L115.987,236.573L115.762,236.945L163.293,265.967C163.339,265.825 163.385,265.684 163.433,265.543Z" style="fill:rgb(15,86,165);fill-rule:nonzero;"/>
            <path d="M279.025,332.255L279.25,331.883L197.183,281.773C197.118,281.902 197.043,282.028 196.973,282.155L279.025,332.255Z" style="fill:rgb(15,86,165);fill-rule:nonzero;"/>
            <path d="M164.952,262.094L117.916,233.375L117.691,233.747L164.751,262.481C164.818,262.352 164.883,262.222 164.952,262.094Z" style="fill:rgb(15,86,165);fill-rule:nonzero;"/>
            <path d="M166.984,258.958L119.845,230.175L119.62,230.547L166.726,259.31C166.812,259.192 166.896,259.074 166.984,258.958Z" style="fill:rgb(15,86,165);fill-rule:nonzero;"/>
            <path d="M280.954,329.056L281.178,328.684L198.22,278.03C198.208,278.192 198.196,278.353 198.177,278.513L280.954,329.056Z" style="fill:rgb(15,86,165);fill-rule:nonzero;"/>
            <path d="M169.469,256.098L121.773,226.976L121.549,227.348L169.158,256.418C169.261,256.311 169.365,256.204 169.469,256.098Z" style="fill:rgb(15,86,165);fill-rule:nonzero;"/>
            <path d="M282.883,325.857L283.107,325.485L197.417,273.163C197.503,273.381 197.588,273.6 197.662,273.822L282.883,325.857Z" style="fill:rgb(15,86,165);fill-rule:nonzero;"/>
            <path d="M172.364,253.489L123.703,223.777L123.478,224.15L172.006,253.78C172.124,253.682 172.244,253.585 172.364,253.489Z" style="fill:rgb(15,86,165);fill-rule:nonzero;"/>
            <path d="M192.962,266.576L284.814,322.659L285.038,322.286L191.712,265.303C192.135,265.714 192.552,266.139 192.962,266.576Z" style="fill:rgb(15,86,165);fill-rule:nonzero;"/>
            <path d="M175.635,251.11L125.632,220.579L125.407,220.951L175.235,251.375C175.368,251.287 175.501,251.198 175.635,251.11Z" style="fill:rgb(15,86,165);fill-rule:nonzero;"/>
            <path d="M192.266,261.775L286.742,319.46L286.967,319.088L192.872,261.635C192.669,261.679 192.468,261.728 192.266,261.775Z" style="fill:rgb(15,86,165);fill-rule:nonzero;"/>
            <path d="M179.263,248.949L127.561,217.381L127.336,217.753L178.824,249.19C178.97,249.109 179.116,249.028 179.263,248.949Z" style="fill:rgb(15,86,165);fill-rule:nonzero;"/>
            <path d="M197.938,260.861L288.671,316.261L288.896,315.889L198.674,260.801C198.429,260.817 198.183,260.839 197.938,260.861Z" style="fill:rgb(15,86,165);fill-rule:nonzero;"/>
            <path d="M183.237,246.998L129.492,214.182L129.267,214.554L182.757,247.215C182.917,247.142 183.077,247.069 183.237,246.998Z" style="fill:rgb(15,86,165);fill-rule:nonzero;"/>
            <path d="M203.15,259.667L290.6,313.063L290.825,312.69L203.285,259.239L203.15,259.667Z" style="fill:rgb(15,86,165);fill-rule:nonzero;"/>
            <path d="M204.311,255.999L292.53,309.865L292.754,309.492L204.446,255.571L204.311,255.999Z" style="fill:rgb(15,86,165);fill-rule:nonzero;"/>
            <path d="M187.552,245.256L131.42,210.982L131.196,211.355L187.033,245.449C187.206,245.384 187.379,245.319 187.552,245.256Z" style="fill:rgb(15,86,165);fill-rule:nonzero;"/>
            <path d="M205.471,252.331L294.458,306.666L294.683,306.293L205.607,251.904L205.471,252.331Z" style="fill:rgb(15,86,165);fill-rule:nonzero;"/>
            <path d="M192.228,243.735L133.35,207.784L133.125,208.157L191.665,243.901C191.853,243.845 192.041,243.789 192.228,243.735Z" style="fill:rgb(15,86,165);fill-rule:nonzero;"/>
            <path d="M206.633,248.663L296.389,303.466L296.614,303.094L206.768,248.235L206.633,248.663Z" style="fill:rgb(15,86,165);fill-rule:nonzero;"/>
            <path d="M197.321,242.467L135.279,204.586L135.054,204.958L196.703,242.6C196.91,242.554 197.117,242.51 197.321,242.467Z" style="fill:rgb(15,86,165);fill-rule:nonzero;"/>
            <path d="M207.793,244.995L298.318,300.268L298.543,299.896L207.928,244.568L207.793,244.995Z" style="fill:rgb(15,86,165);fill-rule:nonzero;"/>
            <path d="M203.024,241.573L137.207,201.386L136.983,201.759L202.31,241.647C202.555,241.619 202.793,241.595 203.024,241.573Z" style="fill:rgb(15,86,165);fill-rule:nonzero;"/>
            <path d="M138.912,198.561L300.247,297.07L300.472,296.697L139.136,198.188L138.912,198.561Z" style="fill:rgb(15,86,165);fill-rule:nonzero;"/>
            <path d="M140.843,195.362L302.176,293.87L302.401,293.498L141.067,194.989L140.843,195.362Z" style="fill:rgb(15,86,165);fill-rule:nonzero;"/>
            <path d="M142.771,192.163L304.105,290.672L304.33,290.299L142.996,191.79L142.771,192.163Z" style="fill:rgb(15,86,165);fill-rule:nonzero;"/>
            <path d="M144.7,188.964L306.034,287.474L306.259,287.101L144.925,188.591L144.7,188.964Z" style="fill:rgb(15,86,165);fill-rule:nonzero;"/>
            <path d="M146.629,185.766L307.963,284.275L308.188,283.903L146.854,185.394L146.629,185.766Z" style="fill:rgb(15,86,165);fill-rule:nonzero;"/>
            <path d="M148.559,182.567L309.894,281.076L310.119,280.703L148.783,182.195L148.559,182.567Z" style="fill:rgb(15,86,165);fill-rule:nonzero;"/>
            <path d="M150.487,179.368L311.823,277.877L312.047,277.505L150.712,178.996L150.487,179.368Z" style="fill:rgb(15,86,165);fill-rule:nonzero;"/>
            <path d="M152.416,176.17L313.752,274.679L313.977,274.306L152.641,175.797L152.416,176.17Z" style="fill:rgb(15,86,165);fill-rule:nonzero;"/>
            <path d="M154.347,172.97L315.681,271.479L315.905,271.107L154.572,172.598L154.347,172.97Z" style="fill:rgb(15,86,165);fill-rule:nonzero;"/>
            <path d="M156.276,169.772L317.61,268.282L317.835,267.91L156.501,169.4L156.276,169.772Z" style="fill:rgb(15,86,165);fill-rule:nonzero;"/>
            <path d="M158.43,166.201L158.205,166.573L319.539,265.083L319.763,264.71L158.43,166.201Z" style="fill:rgb(15,86,165);fill-rule:nonzero;"/>
        </g>
    </g>
    <g transform="matrix(0.664655,0,0,0.664655,-56.5213,-138.307)">
        <path d="M179.13,294.133C178.59,293.769 178.07,293.401 177.573,293.029C172.65,297.021 168.524,301.115 167.779,305.33C167.169,308.779 168.262,311.392 170.411,313.831C171.118,313.711 171.834,313.579 172.554,313.435C170.077,310.981 169.042,308.751 169.59,305.649C170.253,301.898 174.31,297.998 179.13,294.133Z" style="fill:rgb(15,86,165);fill-rule:nonzero;"/>
    </g>
    <g transform="matrix(0.664655,0,0,0.664655,-56.5213,-138.307)">
        <path d="M170.388,272.099C171.235,270.064 172.876,268.149 174.974,266.423C181.024,260.798 191.917,257.472 200.302,257.296L204.22,244.917C194.749,245.489 165.663,253.005 165.663,272.827C165.663,277.259 167.268,280.605 169.781,283.391C168.53,279.858 168.726,276.088 170.388,272.099Z" style="fill:rgb(15,86,165);fill-rule:nonzero;"/>
    </g>
    <g transform="matrix(0.664655,0,0,0.664655,-56.5213,-138.307)">
        <path d="M187.25,287.884C189.092,286.458 190.885,285.02 192.46,283.602C194.583,281.691 195.643,279.542 195.613,277.214C195.608,276.874 195.578,276.535 195.529,276.198C193.827,280.823 188.514,284.573 188.264,284.747L188.262,284.745C187.315,285.508 186.331,286.273 185.338,287.035C184.578,286.713 183.796,286.398 182.979,286.091C179.818,284.906 177,283.741 174.828,282.336L188.388,282.336C188.994,281.837 189.691,281.21 190.391,280.497L172.399,280.497L172.399,280.498C172.41,280.826 172.887,282.336 172.887,282.336C174.125,285.849 177.155,289.111 182.033,292.177C184.686,293.763 187.031,295.288 188.806,296.972L179.837,296.972C179.091,297.586 178.371,298.2 177.687,298.811L190.449,298.811C191.437,300.161 192.052,301.644 192.189,303.345L173.471,303.345C173.038,303.976 172.695,304.591 172.468,305.184L192.132,305.184C191.863,306.89 190.983,308.395 189.673,309.717L172.875,309.717C173.241,310.293 173.748,310.895 174.421,311.557L187.421,311.557C180.569,316.192 168.176,317.977 162.359,318.088L158.622,329.329C166.744,328.795 200.622,323.193 200.622,303.692C200.622,297.354 196.125,292.049 187.25,287.884Z" style="fill:rgb(15,86,165);fill-rule:nonzero;"/>
    </g>
    <g transform="matrix(0.664655,0,0,0.664655,-56.5213,-138.307)">
        <path d="M172.522,275.966L193.612,276C193.614,276.008 193.617,276.016 193.619,276.023C193.622,276.016 193.625,276.008 193.628,276L193.63,276C193.712,275.812 193.776,275.623 193.844,275.434C193.875,275.347 193.915,275.26 193.943,275.173C194.032,274.893 194.102,274.612 194.148,274.332C194.152,274.312 194.152,274.292 194.156,274.271L194.156,274.27C194.261,273.582 194.233,272.934 194.069,272.318C192.107,268.985 188.659,266 186.033,263.759C185.399,264.015 184.768,264.281 184.147,264.566C184.311,264.706 184.474,264.846 184.647,264.994C185.606,265.812 186.694,266.743 187.776,267.751L178.515,267.751C177.672,268.343 176.895,268.957 176.205,269.591L189.635,269.591C190.999,271.034 192.207,272.581 192.959,274.16L173.072,274.127C172.849,274.747 172.655,275.361 172.522,275.966Z" style="fill:rgb(15,86,165);fill-rule:nonzero;"/>
    </g>
    <g transform="matrix(0.23876,0,0,0.23876,102.045,-44.7502)">
        <path d="M231.222,307.251C224.694,293.337 212.498,285.435 196.522,285.435C177.626,285.435 163.711,299.864 163.711,318.073C163.711,356.209 214.044,352.258 214.044,372.184C214.044,383.178 207.688,387.817 198.411,387.817C185.356,387.817 178.141,376.307 174.534,363.424L156.497,374.761C160.276,393.142 176.08,408.43 197.896,408.43C220.915,408.43 236.375,394.516 236.375,370.982C236.375,335.251 185.012,338 185.012,317.042C185.012,310.686 189.994,306.048 196.522,306.048C203.565,306.048 208.547,309.828 213.185,318.76L231.222,307.251Z" style="fill:rgb(15,86,165);fill-rule:nonzero;"/>
        <path d="M332.058,361.878C332.058,342.981 320.548,319.104 291.689,319.104C261.971,319.104 250.118,343.325 250.118,363.767C250.118,384.209 261.971,408.43 291.689,408.43C312.646,408.43 324.328,398.467 331.027,383.178L313.849,376.823C308.695,385.755 302.683,390.222 292.891,390.222C279.664,390.222 272.965,380.258 272.449,370.638L332.058,370.638L332.058,361.878ZM291.689,337.313C303.027,337.313 308.352,345.215 310.241,353.804L272.965,353.804C274.511,345.558 280.867,337.313 291.689,337.313Z" style="fill:rgb(15,86,165);fill-rule:nonzero;"/>
        <path d="M411.765,375.964C407.298,385.068 401.114,390.222 391.494,390.222C378.095,390.222 371.568,379.056 371.568,363.767C371.568,348.479 378.095,337.313 391.494,337.313C401.114,337.313 407.298,342.466 411.765,351.571L430.832,343.84C424.305,327.521 410.734,319.104 391.494,319.104C363.322,319.104 349.236,339.374 349.236,363.767C349.236,388.16 363.322,408.43 391.494,408.43C410.734,408.43 424.305,400.013 430.832,383.694L411.765,375.964Z" style="fill:rgb(15,86,165);fill-rule:nonzero;"/>
        <path d="M448.011,285.435L448.011,407.056L469.311,407.056L469.311,370.467C469.311,347.104 479.79,337.313 489.582,337.313C498.343,337.313 502.465,342.294 502.465,352.773L502.465,407.056L523.766,407.056L523.766,345.215C523.766,327.521 513.116,319.104 496.797,319.104C484.257,319.104 474.809,325.632 469.311,334.392L469.311,285.435L448.011,285.435Z" style="fill:rgb(15,86,165);fill-rule:nonzero;"/>
        <path d="M625.461,361.878C625.461,342.981 613.952,319.104 585.092,319.104C555.374,319.104 543.521,343.325 543.521,363.767C543.521,384.209 555.374,408.43 585.092,408.43C606.05,408.43 617.731,398.467 624.431,383.178L607.252,376.823C602.099,385.755 596.087,390.222 586.295,390.222C573.068,390.222 566.368,380.258 565.853,370.638L625.461,370.638L625.461,361.878ZM585.092,337.313C596.43,337.313 601.755,345.215 603.645,353.804L566.368,353.804C567.914,345.558 574.27,337.313 585.092,337.313Z" style="fill:rgb(15,86,165);fill-rule:nonzero;"/>
        <path d="M644.873,320.478L644.873,407.056L666.174,407.056L666.174,372.528C666.174,349.681 675.622,337.313 685.928,337.313C693.143,337.313 698.297,341.264 698.297,351.571L698.297,407.056L719.598,407.056L719.598,345.215C719.598,327.865 708.432,319.104 692.972,319.104C681.806,319.104 672.529,325.288 666.174,334.392L666.174,320.478L644.873,320.478Z" style="fill:rgb(15,86,165);fill-rule:nonzero;"/>
        <path d="M739.353,363.767C739.353,388.847 755.5,408.43 783.329,408.43C811.157,408.43 827.305,388.847 827.305,363.767C827.305,338.687 811.157,319.104 783.329,319.104C755.5,319.104 739.353,338.687 739.353,363.767ZM761.684,363.767C761.684,349.509 769.586,337.313 783.329,337.313C797.071,337.313 804.973,349.509 804.973,363.767C804.973,378.025 797.071,390.222 783.329,390.222C769.586,390.222 761.684,378.025 761.684,363.767Z" style="fill:rgb(15,86,165);fill-rule:nonzero;"/>
        <path d="M835.551,320.478L864.925,407.056L884.165,407.056L913.539,320.478L892.067,320.478L874.545,380.774L857.023,320.478L835.551,320.478Z" style="fill:rgb(15,86,165);fill-rule:nonzero;"/>
        <path d="M1042.72,407.056L1042.72,373.387C1042.72,348.994 1051.14,337.313 1061.44,337.313C1067.8,337.313 1072.09,340.577 1072.09,349.337L1072.09,407.056L1093.39,407.056L1093.39,345.73C1093.39,329.067 1083.78,319.104 1067.63,319.104C1056.98,319.104 1047.36,325.803 1041.17,336.969C1037.39,324.429 1027.6,319.104 1016.95,319.104C1005.79,319.104 998.4,324.773 992.044,334.392L992.044,320.478L970.743,320.478L970.743,407.056L992.044,407.056L992.044,375.276C992.044,349.509 1000.29,337.313 1010.77,337.313C1017.12,337.313 1021.42,340.577 1021.42,349.337L1021.42,407.056L1042.72,407.056Z" style="fill:rgb(15,86,165);fill-rule:nonzero;"/>
        <path d="M1132.73,347.276C1135.48,339.202 1141.67,337.313 1147.68,337.313C1155.58,337.313 1162.8,340.405 1162.8,350.025L1162.8,353.804L1148.37,353.804C1126.55,353.804 1111.43,364.97 1111.43,382.148C1111.43,399.326 1122.94,408.43 1137.71,408.43C1150.08,408.43 1158.33,403.449 1164.34,396.062L1166.57,407.056L1184.1,407.056L1184.1,355.35C1184.1,327.693 1168.29,319.104 1147.68,319.104C1129.99,319.104 1117.44,328.895 1114.7,343.153L1132.73,347.276ZM1133.76,381.804C1133.76,374.074 1139.43,370.638 1148.54,370.638L1162.8,370.638L1162.8,372.356C1162.8,383.522 1152.49,390.222 1142.7,390.222C1136.68,390.222 1133.76,385.927 1133.76,381.804Z" style="fill:rgb(15,86,165);fill-rule:nonzero;"/>
        <path d="M1265.18,375.964C1260.71,385.068 1254.53,390.222 1244.91,390.222C1231.51,390.222 1224.98,379.056 1224.98,363.767C1224.98,348.479 1231.51,337.313 1244.91,337.313C1254.53,337.313 1260.71,342.466 1265.18,351.571L1284.25,343.84C1277.72,327.521 1264.15,319.104 1244.91,319.104C1216.74,319.104 1202.65,339.374 1202.65,363.767C1202.65,388.16 1216.74,408.43 1244.91,408.43C1264.15,408.43 1277.72,400.013 1284.25,383.694L1265.18,375.964Z" style="fill:rgb(15,86,165);fill-rule:nonzero;"/>
        <path d="M1301.42,285.435L1301.42,407.056L1322.72,407.056L1322.72,370.467C1322.72,347.104 1333.2,337.313 1342.99,337.313C1351.76,337.313 1355.88,342.294 1355.88,352.773L1355.88,407.056L1377.18,407.056L1377.18,345.215C1377.18,327.521 1366.53,319.104 1350.21,319.104C1337.67,319.104 1328.22,325.632 1322.72,334.392L1322.72,285.435L1301.42,285.435Z" style="fill:rgb(15,86,165);fill-rule:nonzero;"/>
        <path d="M1395.73,295.57C1395.73,303.3 1401.57,309.312 1409.47,309.312C1417.38,309.312 1423.22,303.3 1423.22,295.57C1423.22,287.84 1417.38,281.827 1409.47,281.827C1401.57,281.827 1395.73,287.84 1395.73,295.57ZM1398.82,320.478L1398.82,407.056L1420.12,407.056L1420.12,320.478L1398.82,320.478Z" style="fill:rgb(15,86,165);fill-rule:nonzero;"/>
        <path d="M1441.77,320.478L1441.77,407.056L1463.07,407.056L1463.07,372.528C1463.07,349.681 1472.52,337.313 1482.83,337.313C1490.04,337.313 1495.19,341.264 1495.19,351.571L1495.19,407.056L1516.49,407.056L1516.49,345.215C1516.49,327.865 1505.33,319.104 1489.87,319.104C1478.7,319.104 1469.43,325.288 1463.07,334.392L1463.07,320.478L1441.77,320.478Z" style="fill:rgb(15,86,165);fill-rule:nonzero;"/>
        <path d="M1618.19,361.878C1618.19,342.981 1606.68,319.104 1577.82,319.104C1548.1,319.104 1536.25,343.325 1536.25,363.767C1536.25,384.209 1548.1,408.43 1577.82,408.43C1598.78,408.43 1610.46,398.467 1617.16,383.178L1599.98,376.823C1594.83,385.755 1588.81,390.222 1579.02,390.222C1565.8,390.222 1559.1,380.258 1558.58,370.638L1618.19,370.638L1618.19,361.878ZM1577.82,337.313C1589.16,337.313 1594.48,345.215 1596.37,353.804L1559.1,353.804C1560.64,345.558 1567,337.313 1577.82,337.313Z" style="fill:rgb(15,86,165);fill-rule:nonzero;"/>
        <rect x="1680.37" y="285.435" width="21.301" height="121.622" style="fill:rgb(15,86,165);fill-rule:nonzero;"/>
        <path d="M1804.06,361.878C1804.06,342.981 1792.55,319.104 1763.69,319.104C1733.97,319.104 1722.12,343.325 1722.12,363.767C1722.12,384.209 1733.97,408.43 1763.69,408.43C1784.65,408.43 1796.33,398.467 1803.03,383.178L1785.85,376.823C1780.69,385.755 1774.68,390.222 1764.89,390.222C1751.66,390.222 1744.96,380.258 1744.45,370.638L1804.06,370.638L1804.06,361.878ZM1763.69,337.313C1775.03,337.313 1780.35,345.215 1782.24,353.804L1744.96,353.804C1746.51,345.558 1752.87,337.313 1763.69,337.313Z" style="fill:rgb(15,86,165);fill-rule:nonzero;"/>
        <path d="M1839.96,347.276C1842.71,339.202 1848.89,337.313 1854.9,337.313C1862.81,337.313 1870.02,340.405 1870.02,350.025L1870.02,353.804L1855.59,353.804C1833.78,353.804 1818.66,364.97 1818.66,382.148C1818.66,399.326 1830.17,408.43 1844.94,408.43C1857.31,408.43 1865.56,403.449 1871.57,396.062L1873.8,407.056L1891.32,407.056L1891.32,355.35C1891.32,327.693 1875.52,319.104 1854.9,319.104C1837.21,319.104 1824.67,328.895 1821.92,343.153L1839.96,347.276ZM1840.99,381.804C1840.99,374.074 1846.66,370.638 1855.76,370.638L1870.02,370.638L1870.02,372.356C1870.02,383.522 1859.71,390.222 1849.92,390.222C1843.91,390.222 1840.99,385.927 1840.99,381.804Z" style="fill:rgb(15,86,165);fill-rule:nonzero;"/>
        <path d="M1933.07,407.056L1933.07,376.307C1933.07,348.307 1943.89,338.172 1956.26,338.172C1959.86,338.172 1962.61,339.031 1965.19,340.577L1969.14,320.822C1965.7,319.791 1962.44,319.104 1958.66,319.104C1948.87,319.104 1939.25,324.429 1933.07,334.564L1933.07,320.478L1911.76,320.478L1911.76,407.056L1933.07,407.056Z" style="fill:rgb(15,86,165);fill-rule:nonzero;"/>
        <path d="M1984.26,320.478L1984.26,407.056L2005.56,407.056L2005.56,372.528C2005.56,349.681 2015.01,337.313 2025.31,337.313C2032.53,337.313 2037.68,341.264 2037.68,351.571L2037.68,407.056L2058.98,407.056L2058.98,345.215C2058.98,327.865 2047.82,319.104 2032.36,319.104C2021.19,319.104 2011.91,325.288 2005.56,334.392L2005.56,320.478L1984.26,320.478Z" style="fill:rgb(15,86,165);fill-rule:nonzero;"/>
        <path d="M2075.99,295.57C2075.99,303.3 2081.83,309.312 2089.73,309.312C2097.63,309.312 2103.47,303.3 2103.47,295.57C2103.47,287.84 2097.63,281.827 2089.73,281.827C2081.83,281.827 2075.99,287.84 2075.99,295.57ZM2079.08,320.478L2079.08,407.056L2100.38,407.056L2100.38,320.478L2079.08,320.478Z" style="fill:rgb(15,86,165);fill-rule:nonzero;"/>
        <path d="M2122.03,320.478L2122.03,407.056L2143.33,407.056L2143.33,372.528C2143.33,349.681 2152.77,337.313 2163.08,337.313C2170.3,337.313 2175.45,341.264 2175.45,351.571L2175.45,407.056L2196.75,407.056L2196.75,345.215C2196.75,327.865 2185.59,319.104 2170.12,319.104C2158.96,319.104 2149.68,325.288 2143.33,334.392L2143.33,320.478L2122.03,320.478Z" style="fill:rgb(15,86,165);fill-rule:nonzero;"/>
        <path d="M2222.52,348.307C2222.52,355.522 2224.75,361.534 2228.53,366.172C2222.17,369.951 2217.88,376.135 2217.88,384.381C2217.88,389.878 2219.6,394.516 2222.35,397.78C2217.88,401.903 2215.3,407.915 2215.3,414.958C2215.3,433.854 2232.31,443.474 2254.47,443.474C2273.71,443.474 2293.81,434.885 2293.81,413.584C2293.81,396.921 2281.61,388.16 2263.4,388.16L2245.71,388.16C2240.55,388.16 2237.63,385.927 2237.63,381.804C2237.63,379.056 2239.18,376.823 2241.76,375.276C2245.54,376.479 2249.83,377.166 2254.3,377.166C2271.82,377.166 2286.08,366.516 2286.08,348.307C2286.08,343.153 2284.87,338.515 2282.64,334.564L2295.01,328.38L2286.59,314.294L2270.27,322.883C2265.46,320.478 2260.14,319.104 2254.3,319.104C2236.78,319.104 2222.52,330.27 2222.52,348.307ZM2258.59,406.025C2266.67,406.025 2272.51,407.743 2272.51,414.958C2272.51,422.688 2264.6,425.609 2254.47,425.609C2243.3,425.609 2235.06,421.486 2235.06,413.24C2235.06,409.976 2235.57,407.4 2236.95,405.338C2240.04,405.854 2243.3,406.025 2246.91,406.025L2258.59,406.025ZM2242.44,348.307C2242.44,341.092 2247.43,336.282 2254.3,336.282C2261.17,336.282 2266.15,341.092 2266.15,348.307C2266.15,355.35 2261.17,359.988 2254.3,359.988C2247.43,359.988 2242.44,355.35 2242.44,348.307Z" style="fill:rgb(15,86,165);fill-rule:nonzero;"/>
        <path d="M563.963,556.335C559.497,565.439 553.313,570.593 543.693,570.593C530.294,570.593 523.766,559.427 523.766,544.138C523.766,528.85 530.294,517.684 543.693,517.684C553.313,517.684 559.497,522.837 563.963,531.942L583.031,524.211C576.503,507.892 562.933,499.475 543.693,499.475C515.521,499.475 501.435,519.745 501.435,544.138C501.435,568.531 515.521,588.801 543.693,588.801C562.933,588.801 576.503,580.384 583.031,564.065L563.963,556.335Z" style="fill:rgb(15,86,165);fill-rule:nonzero;"/>
        <path d="M600.209,465.806L600.209,587.427L621.51,587.427L621.51,550.838C621.51,527.475 631.989,517.684 641.781,517.684C650.541,517.684 654.664,522.665 654.664,533.144L654.664,587.427L675.965,587.427L675.965,525.586C675.965,507.892 665.315,499.475 648.995,499.475C636.455,499.475 627.007,506.003 621.51,514.763L621.51,465.806L600.209,465.806Z" style="fill:rgb(15,86,165);fill-rule:nonzero;"/>
        <path d="M715.819,527.647C718.567,519.573 724.751,517.684 730.764,517.684C738.666,517.684 745.88,520.776 745.88,530.396L745.88,534.175L731.451,534.175C709.634,534.175 694.518,545.341 694.518,562.519C694.518,579.697 706.027,588.801 720.8,588.801C733.168,588.801 741.414,583.82 747.426,576.433L749.66,587.427L767.181,587.427L767.181,535.721C767.181,508.064 751.377,499.475 730.764,499.475C713.07,499.475 700.53,509.266 697.781,523.524L715.819,527.647ZM716.849,562.175C716.849,554.445 722.518,551.009 731.622,551.009L745.88,551.009L745.88,552.727C745.88,563.893 735.573,570.593 725.782,570.593C719.77,570.593 716.849,566.298 716.849,562.175Z" style="fill:rgb(15,86,165);fill-rule:nonzero;"/>
        <path d="M787.108,500.849L787.108,587.427L808.409,587.427L808.409,552.899C808.409,530.052 817.857,517.684 828.164,517.684C835.379,517.684 840.532,521.635 840.532,531.942L840.532,587.427L861.833,587.427L861.833,525.586C861.833,508.236 850.667,499.475 835.207,499.475C824.041,499.475 814.765,505.659 808.409,514.763L808.409,500.849L787.108,500.849Z" style="fill:rgb(15,86,165);fill-rule:nonzero;"/>
        <path d="M887.6,528.678C887.6,535.893 889.834,541.905 893.613,546.543C887.257,550.322 882.962,556.506 882.962,564.752C882.962,570.249 884.68,574.887 887.429,578.151C882.962,582.274 880.386,588.286 880.386,595.329C880.386,614.225 897.392,623.845 919.552,623.845C938.791,623.845 958.89,615.256 958.89,593.955C958.89,577.292 946.693,568.531 928.485,568.531L910.791,568.531C905.638,568.531 902.717,566.298 902.717,562.175C902.717,559.427 904.263,557.194 906.84,555.647C910.619,556.85 914.914,557.537 919.38,557.537C936.902,557.537 951.16,546.887 951.16,528.678C951.16,523.524 949.957,518.886 947.724,514.935L960.092,508.751L951.675,494.665L935.356,503.254C930.546,500.849 925.221,499.475 919.38,499.475C901.858,499.475 887.6,510.641 887.6,528.678ZM923.675,586.396C931.748,586.396 937.589,588.114 937.589,595.329C937.589,603.059 929.687,605.98 919.552,605.98C908.386,605.98 900.141,601.857 900.141,593.611C900.141,590.347 900.656,587.771 902.03,585.709C905.122,586.225 908.386,586.396 911.993,586.396L923.675,586.396ZM907.527,528.678C907.527,521.463 912.509,516.653 919.38,516.653C926.251,516.653 931.233,521.463 931.233,528.678C931.233,535.721 926.251,540.359 919.38,540.359C912.509,540.359 907.527,535.721 907.527,528.678Z" style="fill:rgb(15,86,165);fill-rule:nonzero;"/>
        <path d="M1051.48,542.249C1051.48,523.352 1039.97,499.475 1011.11,499.475C981.393,499.475 969.54,523.696 969.54,544.138C969.54,564.58 981.393,588.801 1011.11,588.801C1032.07,588.801 1043.75,578.838 1050.45,563.549L1033.27,557.194C1028.12,566.126 1022.11,570.593 1012.31,570.593C999.087,570.593 992.387,560.629 991.872,551.009L1051.48,551.009L1051.48,542.249ZM1011.11,517.684C1022.45,517.684 1027.77,525.586 1029.66,534.175L992.387,534.175C993.933,525.929 1000.29,517.684 1011.11,517.684Z" style="fill:rgb(15,86,165);fill-rule:nonzero;"/>
        <path d="M1114.01,465.806L1114.01,587.427L1135.31,587.427L1135.31,550.838C1135.31,527.475 1145.79,517.684 1155.58,517.684C1164.34,517.684 1168.46,522.665 1168.46,533.144L1168.46,587.427L1189.77,587.427L1189.77,525.586C1189.77,507.892 1179.11,499.475 1162.8,499.475C1150.26,499.475 1140.81,506.003 1135.31,514.763L1135.31,465.806L1114.01,465.806Z" style="fill:rgb(15,86,165);fill-rule:nonzero;"/>
        <path d="M1291.46,542.249C1291.46,523.352 1279.95,499.475 1251.09,499.475C1221.37,499.475 1209.52,523.696 1209.52,544.138C1209.52,564.58 1221.37,588.801 1251.09,588.801C1272.05,588.801 1283.73,578.838 1290.43,563.549L1273.25,557.194C1268.1,566.126 1262.09,570.593 1252.29,570.593C1239.07,570.593 1232.37,560.629 1231.85,551.009L1291.46,551.009L1291.46,542.249ZM1251.09,517.684C1262.43,517.684 1267.75,525.586 1269.64,534.175L1232.37,534.175C1233.91,525.929 1240.27,517.684 1251.09,517.684Z" style="fill:rgb(15,86,165);fill-rule:nonzero;"/>
        <path d="M1327.36,527.647C1330.11,519.573 1336.3,517.684 1342.31,517.684C1350.21,517.684 1357.42,520.776 1357.42,530.396L1357.42,534.175L1342.99,534.175C1321.18,534.175 1306.06,545.341 1306.06,562.519C1306.06,579.697 1317.57,588.801 1332.34,588.801C1344.71,588.801 1352.96,583.82 1358.97,576.433L1361.2,587.427L1378.73,587.427L1378.73,535.721C1378.73,508.064 1362.92,499.475 1342.31,499.475C1324.61,499.475 1312.07,509.266 1309.33,523.524L1327.36,527.647ZM1328.39,562.175C1328.39,554.445 1334.06,551.009 1343.17,551.009L1357.42,551.009L1357.42,552.727C1357.42,563.893 1347.12,570.593 1337.33,570.593C1331.31,570.593 1328.39,566.298 1328.39,562.175Z" style="fill:rgb(15,86,165);fill-rule:nonzero;"/>
        <rect x="1399.85" y="465.806" width="21.301" height="121.622" style="fill:rgb(15,86,165);fill-rule:nonzero;"/>
        <path d="M1492.44,568.531C1489.52,570.077 1487.12,570.593 1484.2,570.593C1476.98,570.593 1472.86,567.157 1472.86,556.506L1472.86,519.058L1495.71,519.058L1495.71,500.849L1472.86,500.849L1472.86,465.806L1451.56,479.205L1451.56,500.849L1438.16,500.849L1438.16,519.058L1451.56,519.058L1451.56,556.85C1451.56,578.323 1463.76,588.801 1483.34,588.801C1487.98,588.801 1492.62,587.942 1497.43,585.709L1492.44,568.531Z" style="fill:rgb(15,86,165);fill-rule:nonzero;"/>
        <path d="M1515.12,465.806L1515.12,587.427L1536.42,587.427L1536.42,550.838C1536.42,527.475 1546.9,517.684 1556.69,517.684C1565.45,517.684 1569.58,522.665 1569.58,533.144L1569.58,587.427L1590.88,587.427L1590.88,525.586C1590.88,507.892 1580.23,499.475 1563.91,499.475C1551.37,499.475 1541.92,506.003 1536.42,514.763L1536.42,465.806L1515.12,465.806Z" style="fill:rgb(15,86,165);fill-rule:nonzero;"/>
        <path d="M1674.02,556.335C1669.55,565.439 1663.37,570.593 1653.75,570.593C1640.35,570.593 1633.82,559.427 1633.82,544.138C1633.82,528.85 1640.35,517.684 1653.75,517.684C1663.37,517.684 1669.55,522.837 1674.02,531.942L1693.09,524.211C1686.56,507.892 1672.99,499.475 1653.75,499.475C1625.58,499.475 1611.49,519.745 1611.49,544.138C1611.49,568.531 1625.58,588.801 1653.75,588.801C1672.99,588.801 1686.56,580.384 1693.09,564.065L1674.02,556.335Z" style="fill:rgb(15,86,165);fill-rule:nonzero;"/>
        <path d="M1727.44,527.647C1730.19,519.573 1736.38,517.684 1742.39,517.684C1750.29,517.684 1757.5,520.776 1757.5,530.396L1757.5,534.175L1743.07,534.175C1721.26,534.175 1706.14,545.341 1706.14,562.519C1706.14,579.697 1717.65,588.801 1732.42,588.801C1744.79,588.801 1753.04,583.82 1759.05,576.433L1761.28,587.427L1778.81,587.427L1778.81,535.721C1778.81,508.064 1763,499.475 1742.39,499.475C1724.69,499.475 1712.15,509.266 1709.4,523.524L1727.44,527.647ZM1728.47,562.175C1728.47,554.445 1734.14,551.009 1743.25,551.009L1757.5,551.009L1757.5,552.727C1757.5,563.893 1747.2,570.593 1737.41,570.593C1731.39,570.593 1728.47,566.298 1728.47,562.175Z" style="fill:rgb(15,86,165);fill-rule:nonzero;"/>
        <path d="M1820.55,587.427L1820.55,556.678C1820.55,528.678 1831.37,518.543 1843.74,518.543C1847.35,518.543 1850.09,519.402 1852.67,520.948L1856.62,501.193C1853.19,500.162 1849.92,499.475 1846.14,499.475C1836.35,499.475 1826.73,504.8 1820.55,514.935L1820.55,500.849L1799.25,500.849L1799.25,587.427L1820.55,587.427Z" style="fill:rgb(15,86,165);fill-rule:nonzero;"/>
        <path d="M1947.32,542.249C1947.32,523.352 1935.81,499.475 1906.95,499.475C1877.24,499.475 1865.38,523.696 1865.38,544.138C1865.38,564.58 1877.24,588.801 1906.95,588.801C1927.91,588.801 1939.59,578.838 1946.29,563.549L1929.11,557.194C1923.96,566.126 1917.95,570.593 1908.16,570.593C1894.93,570.593 1888.23,560.629 1887.72,551.009L1947.32,551.009L1947.32,542.249ZM1906.95,517.684C1918.29,517.684 1923.62,525.586 1925.51,534.175L1888.23,534.175C1889.78,525.929 1896.13,517.684 1906.95,517.684Z" style="fill:rgb(15,86,165);fill-rule:nonzero;"/>
    </g>
</svg>
