<?xml version="1.0" encoding="UTF-8" standalone="no"?>
<svg width="100%" height="100%" viewBox="0 0 1250 959" version="1.1" xmlns="http://www.w3.org/2000/svg" xmlns:xlink="http://www.w3.org/1999/xlink" xml:space="preserve" style="fill-rule:evenodd;clip-rule:evenodd;stroke-linejoin:round;stroke-miterlimit:2;">
    <g transform="matrix(4.16667,0,0,4.16667,-1129.17,-762.5)">
        <g transform="matrix(1,0,0,1,0.0552336,48.3139)">
            <clipPath id="_clip1">
                <path d="M358.42,303.219C356.753,304.548 356.174,305.087 355.66,305.997C354.796,307.526 354.69,309.087 354.658,309.656C354.619,310.316 354.588,310.857 354.783,311.548C355.057,312.518 355.449,312.624 355.912,313.819C356.161,314.464 356.254,314.964 356.413,315.836C356.611,316.922 356.711,317.463 356.664,318.11C356.618,318.755 356.518,320.093 355.536,320.884C354.992,321.325 354.407,321.407 353.655,321.516C352.707,321.651 351.827,321.582 350.895,321.391C348.479,320.887 348.383,320.103 346.505,319.874C346.374,319.859 345.457,319.905 343.623,320.003C341.829,320.093 341.29,320.146 340.612,320.381C340.432,320.443 339.653,320.722 338.607,321.516C336.886,322.823 336.794,323.737 334.718,326.057C333.917,326.952 333.372,327.556 332.461,328.203C331.659,328.776 330.671,329.479 329.2,329.717C327.404,330.011 325.964,329.432 325.439,329.214C324.637,328.879 323.942,328.359 322.554,327.321C321.118,326.245 321.056,326.023 320.298,325.679C319.869,325.485 318.703,324.972 317.289,325.175C317.086,325.204 316.791,325.26 314.78,326.186C312.788,327.102 312.625,327.255 312.021,327.321C311.718,327.352 310.44,327.49 309.387,326.689C308.658,326.136 308.389,325.398 308.134,324.669C307.599,323.146 307.901,322.573 307.632,320.253C307.425,318.482 307.307,317.56 306.629,316.596C305.912,315.573 304.954,315.061 304.747,314.954C303.407,314.26 302.879,314.751 301.738,314.072C301.583,313.978 300.307,313.193 299.983,311.801C299.791,310.976 300.08,310.569 300.232,309.527C300.288,309.165 300.586,306.96 299.732,305.365C299.237,304.445 297.85,303.729 295.091,302.337C292.506,301.03 292.542,301.258 291.832,300.695C290.223,299.425 289.464,297.808 288.571,295.903C287.891,294.455 287.553,293.73 287.442,292.623C287.257,290.765 287.845,289.32 288.194,288.457C288.692,287.234 289.244,285.88 290.577,284.925C291.437,284.309 292.047,284.272 292.709,283.411C292.934,283.118 293.522,282.351 293.462,281.391C293.382,280.155 292.268,279.339 291.456,278.742C289.803,277.531 289.185,277.998 288.069,276.975C286.72,275.736 286.485,274.004 286.44,273.569C286.275,272.018 286.931,270.779 287.568,269.531C288.327,268.042 288.715,268.061 289.073,266.882C289.373,265.894 289.357,265.033 289.324,263.726C289.289,262.378 289.153,262.2 289.073,260.952C288.928,258.75 288.849,257.524 289.449,256.282C290.097,254.943 291.305,254.071 292.082,253.508C293.26,252.654 293.822,252.626 294.214,251.866C294.587,251.14 294.293,250.737 294.214,248.966C294.17,247.99 294.111,246.443 294.59,244.8C294.932,243.624 295.43,242.815 295.845,242.151C296.557,241.013 297.414,239.64 298.979,238.745C300.27,238.007 301.662,237.813 303.117,237.61C304.743,237.381 305.496,237.51 306.253,236.853C307.152,236.071 307.245,234.88 307.256,234.707C307.31,233.863 307.017,232.978 305.75,231.426C303.935,229.199 303.025,229.165 301.112,227.135C300.136,226.103 299.088,224.996 298.352,223.226C297.348,220.811 297.519,218.606 297.599,217.674C297.756,215.904 298.125,215.916 298.854,212.626C299.275,210.731 299.157,210.702 299.732,207.831C300.501,203.99 300.875,203.215 301.488,202.533C302.206,201.729 302.968,201.369 304.245,200.766C305.066,200.378 306.485,199.802 309.137,199.377C310.403,199.177 312.536,198.848 315.406,198.999C319.269,199.205 320.022,200.043 322.178,199.377C322.813,199.183 324.497,198.639 325.563,197.107C326.505,195.755 326.167,194.789 326.567,192.44C326.81,191.023 326.981,191.079 329.2,185.375C330.885,181.046 330.63,181.409 331.333,179.819C332.417,177.368 333.367,175.726 334.718,173.386C336.54,170.234 337.603,168.782 338.857,167.456C339.686,166.58 340.562,165.792 341.868,165.31C342.422,165.104 343.559,164.685 344.876,164.932C346.288,165.198 346.509,165.967 349.014,167.71C350.658,168.851 351.507,169.426 352.775,169.602C353.916,169.758 354.796,169.511 355.786,169.223C356.588,168.988 357.749,168.56 361.304,166.195C363.714,164.591 363.882,164.319 364.815,164.05C366.917,163.437 368.809,164.009 369.33,164.175C372.535,165.192 372.508,167.359 375.85,168.466C376.524,168.688 376.07,168.451 379.739,169.095C383.052,169.68 383.469,169.883 384.504,169.727C384.796,169.683 387.059,169.307 388.642,167.456C389.394,166.577 389.421,166.03 390.522,162.158C391.722,157.939 392.132,157.035 392.403,156.478C393.335,154.579 393.931,153.366 395.287,152.44C396.096,151.89 396.403,151.968 400.179,150.676C401.918,150.079 402.792,149.778 403.062,149.541C404.706,148.099 403.798,146.128 404.944,143.229C405.953,140.68 407.84,139.207 408.831,138.434C411.034,136.72 413.112,136.257 416.355,135.535C418.241,135.112 421.377,134.44 425.51,134.778C428.763,135.041 431.062,135.807 433.661,136.671C436.086,137.474 437.521,137.965 439.178,139.194C441.249,140.724 442.694,142.685 442.815,142.851C443.726,144.105 443.59,144.296 444.194,144.871C444.497,145.159 445.796,146.322 449.837,146.385C453.435,146.441 453.858,145.54 456.735,145.881C457.548,145.975 459.172,146.181 460.998,147.142C463.364,148.383 464.713,150.179 465.262,150.926C466.11,152.084 466.795,153.406 467.142,154.082C467.954,155.652 467.927,155.943 468.522,156.731C469.412,157.907 469.848,157.757 471.155,159.127C472.037,160.053 472.779,160.832 473.162,162.029C473.28,162.399 473.337,162.724 473.288,165.689C473.243,168.369 473.19,168.366 473.288,168.716C473.728,170.312 475.195,171.835 477.049,172.251C478.701,172.623 480.072,171.982 480.562,171.747C482.307,170.902 482.271,169.871 484.699,167.581C486.176,166.193 486.913,165.495 488.084,165.185C488.641,165.038 489.11,165.017 492.85,165.564C496.095,166.039 496.044,166.098 496.612,166.068C498.599,165.961 498.843,165.245 501.504,164.807C503.114,164.541 504.045,164.388 505.139,164.807C506.83,165.451 507.696,166.996 508.024,167.581C509.154,169.598 508.378,170.427 509.404,171.747C510.321,172.926 511.723,173.264 513.792,173.764C516.661,174.459 517.234,173.811 518.557,174.647C520.425,175.829 521.041,178.221 521.19,178.813C521.768,181.061 521.021,182.213 521.943,183.101C522.682,183.814 523.326,183.238 524.953,183.858C527.205,184.721 528.36,186.738 528.59,187.138C529.399,188.555 528.873,188.727 529.718,190.294C530.811,192.321 531.878,192.38 532.227,193.954C532.518,195.267 532.034,196.415 531.851,196.856C531.237,198.314 530.245,198.748 529.718,199.377C527.107,202.496 534.723,211.325 534.483,220.07C534.424,222.247 533.893,223.886 533.731,224.361C533.396,225.343 532.533,227.779 530.346,229.788C529.026,230.995 528.714,230.682 526.207,232.69C524.135,234.344 523.744,235.042 523.573,235.717C523.265,236.934 523.552,238.573 524.577,239.249C525.124,239.611 525.771,239.624 527.461,239.249C531.341,238.392 532.329,237.344 535.11,237.103C536.248,237.006 537.162,236.928 538.247,237.357C540.492,238.245 541.556,240.559 541.882,241.269C542.667,242.971 542.201,243.312 543.012,244.929C543.756,246.414 544.74,247.306 545.895,248.335C548.416,250.577 549.269,250.183 550.534,251.866C550.94,252.404 551.997,253.967 552.041,256.157C552.05,256.664 552.036,258.734 550.66,260.573C549.072,262.697 547.37,262.237 546.146,264.358C545.37,265.703 545.384,267.051 545.393,267.514C545.425,268.962 545.983,270.354 548.529,273.443C552.268,277.982 553.76,278.254 554.799,281.141C555.116,282.023 555.64,283.481 555.425,285.304C555.313,286.261 555.119,286.28 554.547,288.835C554.089,290.887 554.053,291.588 554.047,291.991C554.028,292.985 554.165,293.048 554.171,294.387C554.179,295.866 554.176,296.617 553.795,297.289C553.402,297.986 552.827,298.302 551.915,298.803C550.304,299.688 549.689,299.416 548.277,300.317C547.581,300.764 547.092,301.077 546.773,301.706C546.285,302.672 546.818,303.166 546.647,304.733C546.613,305.052 546.248,306.044 545.519,308.014C544.821,309.903 544.72,310.144 544.39,310.413C543.605,311.051 542.923,310.71 541.631,311.045C540.464,311.345 539.725,312.002 538.247,313.316C537.575,313.91 536.285,315.132 534.86,317.1C533.05,319.599 533.225,320.265 532.101,320.884C531.134,321.419 530.382,321.272 527.587,321.138C524.836,321.003 527.626,321.247 522.193,321.009C515.172,320.706 515.136,320.503 514.294,320.884C512.64,321.635 511.651,322.939 509.404,323.03C508.628,323.061 508.041,322.936 507.898,322.905C505.616,322.392 504.242,320.481 503.761,319.874C502.044,317.719 500.756,318.392 489.464,313.566C486.566,312.327 485.083,311.692 483.445,310.791C479.461,308.602 479.166,307.682 476.673,306.629C474.082,305.53 471.811,305.518 467.268,305.49C461.97,305.462 461.162,306.265 456.861,305.743C454.057,305.402 451.719,304.986 451.719,304.986C449.679,304.624 448.592,304.351 446.702,304.23C444.763,304.104 443.771,304.048 442.689,304.483C440.721,305.271 439.734,306.966 439.43,307.51C438.695,308.815 438.682,309.756 438.426,312.809C437.93,318.708 437.731,318.11 437.674,320.884C437.633,322.827 437.594,324.7 437.924,327.193C438.347,330.386 439.128,332.748 439.68,334.386C440.979,338.246 442.815,342.081 442.815,342.081C443.272,343.038 444.197,344.914 444.696,347.507C444.938,348.764 444.983,349.687 444.696,350.663C444.696,350.663 444.248,352.186 442.815,353.437C439.923,355.964 430.654,355.182 427.14,354.951C418.135,354.363 411.803,353.95 404.19,354.826C400.957,355.198 397.157,355.842 394.787,353.566C393.447,352.277 392.686,350.178 392.779,348.264C392.86,346.644 393.516,345.893 394.66,343.723C394.66,343.723 396.917,339.447 398.296,334.008C399.057,331.018 399.436,329.526 399.3,327.446C399.045,323.54 397.398,322.755 397.294,318.739C397.213,315.608 398.197,315.358 397.796,313.062C397.167,309.462 394.24,307.166 392.905,306.122C390.662,304.364 389.535,304.355 381.87,301.834C374.844,299.519 373.82,298.878 370.708,298.678C368.373,298.527 365.685,298.387 362.934,299.813C362.255,300.167 360.976,301.183 358.42,303.219Z"/>
            </clipPath>
            <g clip-path="url(#_clip1)">
                <path d="M251.189,288.736L476.473,426.289L476.786,425.769L251.502,288.216L251.189,288.736Z" style="fill:white;fill-rule:nonzero;"/>
                <path d="M253.882,284.271L479.166,421.823L479.48,421.303L254.196,283.751L253.882,284.271Z" style="fill:white;fill-rule:nonzero;"/>
                <path d="M256.579,279.802L481.859,417.356L482.173,416.835L256.892,279.282L256.579,279.802Z" style="fill:white;fill-rule:nonzero;"/>
                <path d="M259.272,275.336L484.553,412.889L484.867,412.369L259.586,274.817L259.272,275.336Z" style="fill:white;fill-rule:nonzero;"/>
                <path d="M261.966,270.87L487.247,408.423L487.561,407.903L262.279,270.35L261.966,270.87Z" style="fill:white;fill-rule:nonzero;"/>
                <path d="M264.659,266.404L489.941,403.957L490.255,403.437L264.973,265.884L264.659,266.404Z" style="fill:white;fill-rule:nonzero;"/>
                <path d="M267.353,261.937L492.635,399.489L492.949,398.969L267.666,261.417L267.353,261.937Z" style="fill:white;fill-rule:nonzero;"/>
                <path d="M270.046,257.471L495.328,395.024L495.642,394.504L270.36,256.951L270.046,257.471Z" style="fill:white;fill-rule:nonzero;"/>
                <path d="M272.743,253.004L498.022,390.558L498.336,390.038L273.056,252.484L272.743,253.004Z" style="fill:white;fill-rule:nonzero;"/>
                <path d="M275.436,248.538L500.716,386.091L501.029,385.571L275.75,248.018L275.436,248.538Z" style="fill:white;fill-rule:nonzero;"/>
                <path d="M278.129,244.071L503.409,381.624L503.723,381.104L278.443,243.551L278.129,244.071Z" style="fill:white;fill-rule:nonzero;"/>
                <path d="M280.823,239.605L506.105,377.157L506.419,376.637L281.137,239.085L280.823,239.605Z" style="fill:white;fill-rule:nonzero;"/>
                <path d="M283.516,235.137L508.799,372.692L509.113,372.172L283.83,234.617L283.516,235.137Z" style="fill:white;fill-rule:nonzero;"/>
                <path d="M388.361,293.043L511.492,368.224L511.806,367.704L389.434,292.986C389.038,293.012 388.679,293.031 388.361,293.043Z" style="fill:white;fill-rule:nonzero;"/>
                <path d="M383.691,289.48L286.523,230.151L286.21,230.672L383.495,290.071L383.691,289.48Z" style="fill:white;fill-rule:nonzero;"/>
                <path d="M385.38,284.4L289.217,225.685L288.903,226.205L385.183,284.992L385.38,284.4Z" style="fill:white;fill-rule:nonzero;"/>
                <path d="M396.878,292.133L514.185,363.758L514.5,363.238L397.808,291.989C397.493,292.039 397.184,292.087 396.878,292.133Z" style="fill:white;fill-rule:nonzero;"/>
                <path d="M404.595,290.732L516.879,359.292L517.193,358.772L405.457,290.547C405.168,290.609 404.88,290.672 404.595,290.732Z" style="fill:white;fill-rule:nonzero;"/>
                <path d="M387.069,279.319L291.914,221.218L291.6,221.738L386.873,279.911L387.069,279.319Z" style="fill:white;fill-rule:nonzero;"/>
                <path d="M411.774,289.005L519.573,354.826L519.887,354.306L412.58,288.785C412.311,288.86 412.042,288.932 411.774,289.005Z" style="fill:white;fill-rule:nonzero;"/>
                <path d="M388.758,274.24L294.607,216.753L294.293,217.273L388.561,274.831L388.758,274.24Z" style="fill:white;fill-rule:nonzero;"/>
                <path d="M418.474,286.983L522.268,350.358L522.583,349.838L419.224,286.729C418.974,286.815 418.724,286.899 418.474,286.983Z" style="fill:white;fill-rule:nonzero;"/>
                <path d="M390.447,269.158L297.3,212.285L296.987,212.805L390.25,269.75L390.447,269.158Z" style="fill:white;fill-rule:nonzero;"/>
                <path d="M424.69,284.668L524.963,345.892L525.276,345.372L425.384,284.38C425.155,284.476 424.923,284.572 424.69,284.668Z" style="fill:white;fill-rule:nonzero;"/>
                <path d="M397.812,267.544L299.994,207.819L299.681,208.339L396.768,267.619C397.108,267.597 397.458,267.572 397.812,267.544Z" style="fill:white;fill-rule:nonzero;"/>
                <path d="M302.687,203.352L302.374,203.872L399.011,262.877C398.899,262.581 398.797,262.281 398.703,261.977L302.687,203.352Z" style="fill:white;fill-rule:nonzero;"/>
                <path d="M430.413,282.051L527.656,341.426L527.97,340.905L431.048,281.726C430.839,281.836 430.625,281.943 430.413,282.051Z" style="fill:white;fill-rule:nonzero;"/>
                <path d="M435.609,279.112L530.35,336.96L530.664,336.44L436.176,278.747C435.988,278.869 435.8,278.992 435.609,279.112Z" style="fill:white;fill-rule:nonzero;"/>
                <path d="M305.381,198.885L305.067,199.405L398.051,256.18C398.065,255.958 398.089,255.732 398.112,255.506L305.381,198.885Z" style="fill:white;fill-rule:nonzero;"/>
                <path d="M440.241,275.828L533.043,332.492L533.357,331.972L440.743,275.423C440.578,275.559 440.409,275.693 440.241,275.828Z" style="fill:white;fill-rule:nonzero;"/>
                <path d="M308.078,194.419L307.764,194.939L399.251,250.8C399.326,250.613 399.421,250.428 399.502,250.242L308.078,194.419Z" style="fill:white;fill-rule:nonzero;"/>
                <path d="M444.26,272.172L535.737,328.026L536.05,327.506L444.688,271.721C444.548,271.872 444.403,272.022 444.26,272.172Z" style="fill:white;fill-rule:nonzero;"/>
                <path d="M310.771,189.953L310.458,190.473L401.767,246.226C401.881,246.061 402.007,245.898 402.126,245.734L310.771,189.953Z" style="fill:white;fill-rule:nonzero;"/>
                <path d="M313.464,185.485L313.15,186.005L405.095,242.147C405.236,241.994 405.369,241.841 405.513,241.69L313.464,185.485Z" style="fill:white;fill-rule:nonzero;"/>
                <path d="M447.609,268.106L538.431,323.56L538.744,323.04L447.949,267.601C447.837,267.77 447.726,267.938 447.609,268.106Z" style="fill:white;fill-rule:nonzero;"/>
                <path d="M316.157,181.018L315.844,181.538L408.933,238.377C409.089,238.235 409.248,238.094 409.406,237.954L316.157,181.018Z" style="fill:white;fill-rule:nonzero;"/>
                <path d="M450.2,263.574L541.126,319.092L541.44,318.572L450.444,263.011C450.364,263.199 450.285,263.387 450.2,263.574Z" style="fill:white;fill-rule:nonzero;"/>
                <path d="M451.913,258.509L543.82,314.626L544.134,314.106L452.05,257.881C452.007,258.091 451.961,258.3 451.913,258.509Z" style="fill:white;fill-rule:nonzero;"/>
                <path d="M400.26,226.259L318.851,176.552L318.537,177.072L401.659,227.825C401.175,227.316 400.707,226.796 400.26,226.259Z" style="fill:white;fill-rule:nonzero;"/>
                <path d="M395.293,217.115L321.544,172.086L321.231,172.606L395.573,217.998C395.474,217.707 395.381,217.413 395.293,217.115Z" style="fill:white;fill-rule:nonzero;"/>
                <path d="M452.599,252.41C452.599,252.545 452.592,252.677 452.59,252.812L546.514,310.16L546.827,309.64L452.584,252.097C452.586,252.202 452.599,252.304 452.599,252.41Z" style="fill:white;fill-rule:nonzero;"/>
                <path d="M451.73,246.176L549.208,305.694L549.521,305.174L451.463,245.301C451.559,245.591 451.647,245.883 451.73,246.176Z" style="fill:white;fill-rule:nonzero;"/>
                <path d="M394.228,210.355L324.238,167.62L323.924,168.14L394.259,211.085C394.245,210.844 394.236,210.6 394.228,210.355Z" style="fill:white;fill-rule:nonzero;"/>
                <path d="M446.606,236.937L551.9,301.227L552.214,300.707L445.077,235.291C445.617,235.831 446.125,236.38 446.606,236.937Z" style="fill:white;fill-rule:nonzero;"/>
                <path d="M394.574,204.455L326.932,163.154L326.618,163.674L394.479,205.109C394.508,204.889 394.541,204.672 394.574,204.455Z" style="fill:white;fill-rule:nonzero;"/>
                <path d="M554.594,296.76L554.908,296.24L439.956,226.052C439.813,226.2 439.658,226.344 439.508,226.49L554.594,296.76Z" style="fill:white;fill-rule:nonzero;"/>
                <path d="M395.88,199.14L329.628,158.687L329.314,159.207L395.685,199.732C395.749,199.534 395.813,199.336 395.88,199.14Z" style="fill:white;fill-rule:nonzero;"/>
                <path d="M557.288,292.295L557.602,291.775L443.006,221.804C442.917,221.984 442.812,222.159 442.714,222.337L557.288,292.295Z" style="fill:white;fill-rule:nonzero;"/>
                <path d="M398.001,194.324L332.322,154.221L332.008,154.741L397.72,194.864C397.814,194.685 397.904,194.503 398.001,194.324Z" style="fill:white;fill-rule:nonzero;"/>
                <path d="M400.839,189.945L335.015,149.754L334.702,150.274L400.478,190.436C400.598,190.272 400.716,190.107 400.839,189.945Z" style="fill:white;fill-rule:nonzero;"/>
                <path d="M559.981,287.827L560.294,287.307L444.456,216.577C444.439,216.802 444.422,217.027 444.395,217.251L559.981,287.827Z" style="fill:white;fill-rule:nonzero;"/>
                <path d="M404.309,185.952L337.708,145.286L337.395,145.806L403.875,186.399C404.019,186.249 404.163,186.1 404.309,185.952Z" style="fill:white;fill-rule:nonzero;"/>
                <path d="M562.674,283.361L562.988,282.841L443.333,209.78C443.454,210.086 443.572,210.391 443.675,210.701L562.674,283.361Z" style="fill:white;fill-rule:nonzero;"/>
                <path d="M408.35,182.308L340.402,140.82L340.088,141.34L407.851,182.715C408.016,182.578 408.183,182.443 408.35,182.308Z" style="fill:white;fill-rule:nonzero;"/>
                <path d="M437.113,200.582L565.371,278.895L565.685,278.375L435.368,198.805C435.958,199.38 436.541,199.972 437.113,200.582Z" style="fill:white;fill-rule:nonzero;"/>
                <path d="M412.919,178.987L343.096,136.355L342.782,136.875L412.36,179.358C412.545,179.233 412.732,179.11 412.919,178.987Z" style="fill:white;fill-rule:nonzero;"/>
                <path d="M436.142,193.879L568.064,274.429L568.378,273.908L436.987,193.683C436.704,193.745 436.423,193.813 436.142,193.879Z" style="fill:white;fill-rule:nonzero;"/>
                <path d="M417.984,175.969L345.79,131.888L345.476,132.408L417.371,176.306C417.575,176.193 417.779,176.08 417.984,175.969Z" style="fill:white;fill-rule:nonzero;"/>
                <path d="M444.061,192.603L570.758,269.961L571.071,269.441L445.089,192.518C444.747,192.542 444.404,192.572 444.061,192.603Z" style="fill:white;fill-rule:nonzero;"/>
                <path d="M423.533,173.245L348.486,127.422L348.172,127.942L422.863,173.547C423.086,173.445 423.31,173.344 423.533,173.245Z" style="fill:white;fill-rule:nonzero;"/>
                <path d="M451.339,190.935L573.452,265.495L573.765,264.975L451.528,190.338L451.339,190.935Z" style="fill:white;fill-rule:nonzero;"/>
                <path d="M452.96,185.813L576.145,261.029L576.458,260.509L453.149,185.216L452.96,185.813Z" style="fill:white;fill-rule:nonzero;"/>
                <path d="M429.559,170.813L351.179,122.954L350.865,123.474L428.833,171.081C429.075,170.991 429.317,170.901 429.559,170.813Z" style="fill:white;fill-rule:nonzero;"/>
                <path d="M454.581,180.692L578.839,256.563L579.152,256.043L454.77,180.095L454.581,180.692Z" style="fill:white;fill-rule:nonzero;"/>
                <path d="M436.088,168.689L353.873,118.488L353.559,119.008L435.301,168.92C435.564,168.842 435.827,168.764 436.088,168.689Z" style="fill:white;fill-rule:nonzero;"/>
                <path d="M456.202,175.569L581.535,252.095L581.849,251.575L456.391,174.973L456.202,175.569Z" style="fill:white;fill-rule:nonzero;"/>
                <path d="M443.199,166.918L356.566,114.022L356.252,114.542L442.336,167.103C442.626,167.04 442.915,166.978 443.199,166.918Z" style="fill:white;fill-rule:nonzero;"/>
                <path d="M457.823,170.447L584.228,247.629L584.542,247.109L458.012,169.851L457.823,170.447Z" style="fill:white;fill-rule:nonzero;"/>
                <path d="M451.163,165.67L359.259,109.555L358.945,110.075L450.166,165.773C450.508,165.734 450.84,165.7 451.163,165.67Z" style="fill:white;fill-rule:nonzero;"/>
                <path d="M361.639,105.609L586.922,243.163L587.236,242.643L361.953,105.089L361.639,105.609Z" style="fill:white;fill-rule:nonzero;"/>
                <path d="M364.336,101.142L589.615,238.695L589.929,238.175L364.649,100.623L364.336,101.142Z" style="fill:white;fill-rule:nonzero;"/>
                <path d="M367.029,96.675L592.309,234.23L592.623,233.71L367.343,96.155L367.029,96.675Z" style="fill:white;fill-rule:nonzero;"/>
                <path d="M369.723,92.209L595.002,229.763L595.316,229.243L370.036,91.689L369.723,92.209Z" style="fill:white;fill-rule:nonzero;"/>
                <path d="M372.416,87.743L597.696,225.297L598.01,224.777L372.73,87.223L372.416,87.743Z" style="fill:white;fill-rule:nonzero;"/>
                <path d="M375.11,83.277L600.392,220.829L600.706,220.309L375.423,82.757L375.11,83.277Z" style="fill:white;fill-rule:nonzero;"/>
                <path d="M377.803,78.81L603.085,216.363L603.399,215.843L378.117,78.289L377.803,78.81Z" style="fill:white;fill-rule:nonzero;"/>
                <path d="M380.497,74.343L605.779,211.897L606.093,211.377L380.811,73.823L380.497,74.343Z" style="fill:white;fill-rule:nonzero;"/>
                <path d="M383.192,69.876L608.473,207.43L608.786,206.91L383.506,69.356L383.192,69.876Z" style="fill:white;fill-rule:nonzero;"/>
                <path d="M385.887,65.411L611.167,202.965L611.48,202.445L386.2,64.891L385.887,65.411Z" style="fill:white;fill-rule:nonzero;"/>
                <path d="M388.894,60.423L388.58,60.943L613.86,198.498L614.173,197.978L388.894,60.423Z" style="fill:white;fill-rule:nonzero;"/>
            </g>
        </g>
        <g transform="matrix(1,0,0,1,0.0552336,48.3139)">
            <path d="M417.798,239.063C417.044,238.554 416.319,238.04 415.625,237.521C408.75,243.094 402.988,248.811 401.948,254.696C401.097,259.513 402.624,263.162 405.623,266.568C406.611,266.401 407.611,266.216 408.616,266.014C405.157,262.588 403.711,259.475 404.478,255.143C405.403,249.905 411.068,244.46 417.798,239.063Z" style="fill:white;fill-rule:nonzero;"/>
        </g>
        <g transform="matrix(1,0,0,1,0.0552336,48.3139)">
            <path d="M405.591,208.295C406.774,205.454 409.065,202.78 411.995,200.369C420.444,192.514 435.653,187.869 447.362,187.626L452.833,170.339C439.608,171.138 398.993,181.633 398.993,209.311C398.993,215.501 401.234,220.172 404.743,224.062C402.997,219.129 403.271,213.865 405.591,208.295Z" style="fill:white;fill-rule:nonzero;"/>
        </g>
        <g transform="matrix(1,0,0,1,0.0552336,48.3139)">
            <path d="M429.137,230.337C431.709,228.346 434.212,226.338 436.413,224.357C439.376,221.689 440.857,218.688 440.814,215.438C440.808,214.963 440.766,214.489 440.698,214.019C438.321,220.477 430.903,225.713 430.553,225.956L430.551,225.953C429.228,227.019 427.853,228.087 426.467,229.151C425.405,228.702 424.314,228.261 423.174,227.834C418.759,226.177 414.825,224.551 411.791,222.59L430.726,222.59C431.572,221.893 432.546,221.018 433.523,220.022L408.399,220.022L408.4,220.022C408.416,220.481 409.081,222.59 409.081,222.59C410.809,227.494 415.041,232.049 421.853,236.331C425.557,238.546 428.832,240.675 431.309,243.026L418.786,243.026C417.744,243.884 416.738,244.741 415.784,245.594L433.604,245.594C434.984,247.479 435.842,249.549 436.034,251.925L409.897,251.925C409.291,252.806 408.812,253.665 408.496,254.493L435.954,254.493C435.579,256.876 434.35,258.977 432.52,260.824L409.065,260.824C409.575,261.628 410.283,262.468 411.223,263.392L429.375,263.392C419.808,269.865 402.502,272.356 394.379,272.512L389.162,288.209C400.503,287.463 447.81,279.641 447.81,252.41C447.81,243.559 441.53,236.152 429.137,230.337Z" style="fill:white;fill-rule:nonzero;"/>
        </g>
        <g transform="matrix(1,0,0,1,0.0552336,48.3139)">
            <path d="M408.571,213.694L438.021,213.742C438.024,213.753 438.028,213.764 438.03,213.775C438.035,213.764 438.038,213.753 438.043,213.742L438.045,213.742C438.16,213.48 438.25,213.215 438.345,212.951C438.388,212.83 438.444,212.709 438.482,212.588C438.607,212.196 438.705,211.804 438.77,211.413C438.774,211.384 438.775,211.357 438.779,211.329L438.779,211.326C438.927,210.365 438.887,209.461 438.659,208.601C435.919,203.946 431.104,199.778 427.438,196.649C426.553,197.006 425.671,197.378 424.804,197.776C425.033,197.972 425.261,198.167 425.503,198.373C426.842,199.516 428.361,200.817 429.872,202.224L416.94,202.224C415.762,203.05 414.677,203.907 413.714,204.793L432.468,204.793C434.371,206.807 436.059,208.968 437.108,211.172L409.339,211.127C409.028,211.992 408.757,212.85 408.571,213.694Z" style="fill:white;fill-rule:nonzero;"/>
        </g>
    </g>
</svg>
